<?xml version="1.0" encoding="utf-8" standalone="no"?>
<!DOCTYPE svg PUBLIC "-//W3C//DTD SVG 1.1//EN"
  "http://www.w3.org/Graphics/SVG/1.1/DTD/svg11.dtd">
<svg xmlns:xlink="http://www.w3.org/1999/xlink" width="1800pt" height="504pt" viewBox="0 0 1800 504" xmlns="http://www.w3.org/2000/svg" version="1.1">
 <metadata>
  <rdf:RDF xmlns:dc="http://purl.org/dc/elements/1.1/" xmlns:cc="http://creativecommons.org/ns#" xmlns:rdf="http://www.w3.org/1999/02/22-rdf-syntax-ns#">
   <cc:Work>
    <dc:type rdf:resource="http://purl.org/dc/dcmitype/StillImage"/>
    <dc:date>2024-01-23T11:07:36.082340</dc:date>
    <dc:format>image/svg+xml</dc:format>
    <dc:creator>
     <cc:Agent>
      <dc:title>Matplotlib v3.5.1, https://matplotlib.org/</dc:title>
     </cc:Agent>
    </dc:creator>
   </cc:Work>
  </rdf:RDF>
 </metadata>
 <defs>
  <style type="text/css">*{stroke-linejoin: round; stroke-linecap: butt}</style>
 </defs>
 <g id="figure_1">
  <g id="patch_1">
   <path d="M 0 504 
L 1800 504 
L 1800 0 
L 0 0 
z
" style="fill: #ffffff"/>
  </g>
  <g id="axes_1">
   <g id="patch_2">
    <path d="M 225 448.56 
L 612.5 448.56 
L 612.5 60.48 
L 225 60.48 
z
" style="fill: #ffffff"/>
   </g>
   <g id="PathCollection_1">
    <defs>
     <path id="mfe0a6be2d0" d="M 0 6.123724 
C 1.624031 6.123724 3.181764 5.47849 4.330127 4.330127 
C 5.47849 3.181764 6.123724 1.624031 6.123724 0 
C 6.123724 -1.624031 5.47849 -3.181764 4.330127 -4.330127 
C 3.181764 -5.47849 1.624031 -6.123724 0 -6.123724 
C -1.624031 -6.123724 -3.181764 -5.47849 -4.330127 -4.330127 
C -5.47849 -3.181764 -6.123724 -1.624031 -6.123724 0 
C -6.123724 1.624031 -5.47849 3.181764 -4.330127 4.330127 
C -3.181764 5.47849 -1.624031 6.123724 0 6.123724 
z
" style="stroke: #add8e6"/>
    </defs>
    <g clip-path="url(#p0478cfb9b3)">
     <use xlink:href="#mfe0a6be2d0" x="242.613636" y="78.12" style="fill: #add8e6; stroke: #add8e6"/>
    </g>
   </g>
   <g id="matplotlib.axis_1">
    <g id="xtick_1">
     <g id="line2d_1">
      <path d="M 391.552788 448.56 
L 391.552788 60.48 
" clip-path="url(#p0478cfb9b3)" style="fill: none; stroke: #b0b0b0; stroke-opacity: 0.2; stroke-linecap: square"/>
     </g>
     <g id="line2d_2">
      <defs>
       <path id="m95ce30ea05" d="M 0 0 
L 0 -12 
" style="stroke: #000000; stroke-width: 1.5"/>
      </defs>
      <g>
       <use xlink:href="#m95ce30ea05" x="391.552788" y="448.56" style="stroke: #000000; stroke-width: 1.5"/>
      </g>
     </g>
     <g id="line2d_3">
      <defs>
       <path id="m470762e2e3" d="M 0 0 
L 0 12 
" style="stroke: #000000; stroke-width: 1.5"/>
      </defs>
      <g>
       <use xlink:href="#m470762e2e3" x="391.552788" y="60.48" style="stroke: #000000; stroke-width: 1.5"/>
      </g>
     </g>
     <g id="text_1">
      <!-- $\mathdefault{10^{-1}}$ -->
      <g transform="translate(371.977288 468.218997)scale(0.1666 -0.1666)">
       <defs>
        <path id="DejaVuSans-31" d="M 794 531 
L 1825 531 
L 1825 4091 
L 703 3866 
L 703 4441 
L 1819 4666 
L 2450 4666 
L 2450 531 
L 3481 531 
L 3481 0 
L 794 0 
L 794 531 
z
" transform="scale(0.015625)"/>
        <path id="DejaVuSans-30" d="M 2034 4250 
Q 1547 4250 1301 3770 
Q 1056 3291 1056 2328 
Q 1056 1369 1301 889 
Q 1547 409 2034 409 
Q 2525 409 2770 889 
Q 3016 1369 3016 2328 
Q 3016 3291 2770 3770 
Q 2525 4250 2034 4250 
z
M 2034 4750 
Q 2819 4750 3233 4129 
Q 3647 3509 3647 2328 
Q 3647 1150 3233 529 
Q 2819 -91 2034 -91 
Q 1250 -91 836 529 
Q 422 1150 422 2328 
Q 422 3509 836 4129 
Q 1250 4750 2034 4750 
z
" transform="scale(0.015625)"/>
        <path id="DejaVuSans-2212" d="M 678 2272 
L 4684 2272 
L 4684 1741 
L 678 1741 
L 678 2272 
z
" transform="scale(0.015625)"/>
       </defs>
       <use xlink:href="#DejaVuSans-31" transform="translate(0 0.684375)"/>
       <use xlink:href="#DejaVuSans-30" transform="translate(63.623047 0.684375)"/>
       <use xlink:href="#DejaVuSans-2212" transform="translate(128.203125 38.965625)scale(0.7)"/>
       <use xlink:href="#DejaVuSans-31" transform="translate(186.855469 38.965625)scale(0.7)"/>
      </g>
     </g>
    </g>
    <g id="xtick_2">
     <g id="line2d_4">
      <path d="M 604.636541 448.56 
L 604.636541 60.48 
" clip-path="url(#p0478cfb9b3)" style="fill: none; stroke: #b0b0b0; stroke-opacity: 0.2; stroke-linecap: square"/>
     </g>
     <g id="line2d_5">
      <g>
       <use xlink:href="#m95ce30ea05" x="604.636541" y="448.56" style="stroke: #000000; stroke-width: 1.5"/>
      </g>
     </g>
     <g id="line2d_6">
      <g>
       <use xlink:href="#m470762e2e3" x="604.636541" y="60.48" style="stroke: #000000; stroke-width: 1.5"/>
      </g>
     </g>
     <g id="text_2">
      <!-- $\mathdefault{10^{0}}$ -->
      <g transform="translate(589.975741 468.218997)scale(0.1666 -0.1666)">
       <use xlink:href="#DejaVuSans-31" transform="translate(0 0.765625)"/>
       <use xlink:href="#DejaVuSans-30" transform="translate(63.623047 0.765625)"/>
       <use xlink:href="#DejaVuSans-30" transform="translate(128.203125 39.046875)scale(0.7)"/>
      </g>
     </g>
    </g>
    <g id="xtick_3">
     <g id="line2d_7">
      <defs>
       <path id="m73aa0819f6" d="M 0 0 
L 0 -5 
" style="stroke: #000000"/>
      </defs>
      <g>
       <use xlink:href="#m73aa0819f6" x="242.613636" y="448.56" style="stroke: #000000"/>
      </g>
     </g>
     <g id="line2d_8">
      <defs>
       <path id="m48c4147199" d="M 0 0 
L 0 5 
" style="stroke: #000000"/>
      </defs>
      <g>
       <use xlink:href="#m48c4147199" x="242.613636" y="60.48" style="stroke: #000000"/>
      </g>
     </g>
    </g>
    <g id="xtick_4">
     <g id="line2d_9">
      <g>
       <use xlink:href="#m73aa0819f6" x="280.135823" y="448.56" style="stroke: #000000"/>
      </g>
     </g>
     <g id="line2d_10">
      <g>
       <use xlink:href="#m48c4147199" x="280.135823" y="60.48" style="stroke: #000000"/>
      </g>
     </g>
    </g>
    <g id="xtick_5">
     <g id="line2d_11">
      <g>
       <use xlink:href="#m73aa0819f6" x="306.758238" y="448.56" style="stroke: #000000"/>
      </g>
     </g>
     <g id="line2d_12">
      <g>
       <use xlink:href="#m48c4147199" x="306.758238" y="60.48" style="stroke: #000000"/>
      </g>
     </g>
    </g>
    <g id="xtick_6">
     <g id="line2d_13">
      <g>
       <use xlink:href="#m73aa0819f6" x="327.408187" y="448.56" style="stroke: #000000"/>
      </g>
     </g>
     <g id="line2d_14">
      <g>
       <use xlink:href="#m48c4147199" x="327.408187" y="60.48" style="stroke: #000000"/>
      </g>
     </g>
    </g>
    <g id="xtick_7">
     <g id="line2d_15">
      <g>
       <use xlink:href="#m73aa0819f6" x="344.280424" y="448.56" style="stroke: #000000"/>
      </g>
     </g>
     <g id="line2d_16">
      <g>
       <use xlink:href="#m48c4147199" x="344.280424" y="60.48" style="stroke: #000000"/>
      </g>
     </g>
    </g>
    <g id="xtick_8">
     <g id="line2d_17">
      <g>
       <use xlink:href="#m73aa0819f6" x="358.545697" y="448.56" style="stroke: #000000"/>
      </g>
     </g>
     <g id="line2d_18">
      <g>
       <use xlink:href="#m48c4147199" x="358.545697" y="60.48" style="stroke: #000000"/>
      </g>
     </g>
    </g>
    <g id="xtick_9">
     <g id="line2d_19">
      <g>
       <use xlink:href="#m73aa0819f6" x="370.902839" y="448.56" style="stroke: #000000"/>
      </g>
     </g>
     <g id="line2d_20">
      <g>
       <use xlink:href="#m48c4147199" x="370.902839" y="60.48" style="stroke: #000000"/>
      </g>
     </g>
    </g>
    <g id="xtick_10">
     <g id="line2d_21">
      <g>
       <use xlink:href="#m73aa0819f6" x="381.80261" y="448.56" style="stroke: #000000"/>
      </g>
     </g>
     <g id="line2d_22">
      <g>
       <use xlink:href="#m48c4147199" x="381.80261" y="60.48" style="stroke: #000000"/>
      </g>
     </g>
    </g>
    <g id="xtick_11">
     <g id="line2d_23">
      <g>
       <use xlink:href="#m73aa0819f6" x="455.69739" y="448.56" style="stroke: #000000"/>
      </g>
     </g>
     <g id="line2d_24">
      <g>
       <use xlink:href="#m48c4147199" x="455.69739" y="60.48" style="stroke: #000000"/>
      </g>
     </g>
    </g>
    <g id="xtick_12">
     <g id="line2d_25">
      <g>
       <use xlink:href="#m73aa0819f6" x="493.219576" y="448.56" style="stroke: #000000"/>
      </g>
     </g>
     <g id="line2d_26">
      <g>
       <use xlink:href="#m48c4147199" x="493.219576" y="60.48" style="stroke: #000000"/>
      </g>
     </g>
    </g>
    <g id="xtick_13">
     <g id="line2d_27">
      <g>
       <use xlink:href="#m73aa0819f6" x="519.841991" y="448.56" style="stroke: #000000"/>
      </g>
     </g>
     <g id="line2d_28">
      <g>
       <use xlink:href="#m48c4147199" x="519.841991" y="60.48" style="stroke: #000000"/>
      </g>
     </g>
    </g>
    <g id="xtick_14">
     <g id="line2d_29">
      <g>
       <use xlink:href="#m73aa0819f6" x="540.49194" y="448.56" style="stroke: #000000"/>
      </g>
     </g>
     <g id="line2d_30">
      <g>
       <use xlink:href="#m48c4147199" x="540.49194" y="60.48" style="stroke: #000000"/>
      </g>
     </g>
    </g>
    <g id="xtick_15">
     <g id="line2d_31">
      <g>
       <use xlink:href="#m73aa0819f6" x="557.364177" y="448.56" style="stroke: #000000"/>
      </g>
     </g>
     <g id="line2d_32">
      <g>
       <use xlink:href="#m48c4147199" x="557.364177" y="60.48" style="stroke: #000000"/>
      </g>
     </g>
    </g>
    <g id="xtick_16">
     <g id="line2d_33">
      <g>
       <use xlink:href="#m73aa0819f6" x="571.62945" y="448.56" style="stroke: #000000"/>
      </g>
     </g>
     <g id="line2d_34">
      <g>
       <use xlink:href="#m48c4147199" x="571.62945" y="60.48" style="stroke: #000000"/>
      </g>
     </g>
    </g>
    <g id="xtick_17">
     <g id="line2d_35">
      <g>
       <use xlink:href="#m73aa0819f6" x="583.986592" y="448.56" style="stroke: #000000"/>
      </g>
     </g>
     <g id="line2d_36">
      <g>
       <use xlink:href="#m48c4147199" x="583.986592" y="60.48" style="stroke: #000000"/>
      </g>
     </g>
    </g>
    <g id="xtick_18">
     <g id="line2d_37">
      <g>
       <use xlink:href="#m73aa0819f6" x="594.886364" y="448.56" style="stroke: #000000"/>
      </g>
     </g>
     <g id="line2d_38">
      <g>
       <use xlink:href="#m48c4147199" x="594.886364" y="60.48" style="stroke: #000000"/>
      </g>
     </g>
    </g>
    <g id="text_3">
     <!-- Lower Limit ($\mathrm{\mu m^{-1}}$) -->
     <g transform="translate(322.85 493.683756)scale(0.2 -0.2)">
      <defs>
       <path id="DejaVuSans-4c" d="M 628 4666 
L 1259 4666 
L 1259 531 
L 3531 531 
L 3531 0 
L 628 0 
L 628 4666 
z
" transform="scale(0.015625)"/>
       <path id="DejaVuSans-6f" d="M 1959 3097 
Q 1497 3097 1228 2736 
Q 959 2375 959 1747 
Q 959 1119 1226 758 
Q 1494 397 1959 397 
Q 2419 397 2687 759 
Q 2956 1122 2956 1747 
Q 2956 2369 2687 2733 
Q 2419 3097 1959 3097 
z
M 1959 3584 
Q 2709 3584 3137 3096 
Q 3566 2609 3566 1747 
Q 3566 888 3137 398 
Q 2709 -91 1959 -91 
Q 1206 -91 779 398 
Q 353 888 353 1747 
Q 353 2609 779 3096 
Q 1206 3584 1959 3584 
z
" transform="scale(0.015625)"/>
       <path id="DejaVuSans-77" d="M 269 3500 
L 844 3500 
L 1563 769 
L 2278 3500 
L 2956 3500 
L 3675 769 
L 4391 3500 
L 4966 3500 
L 4050 0 
L 3372 0 
L 2619 2869 
L 1863 0 
L 1184 0 
L 269 3500 
z
" transform="scale(0.015625)"/>
       <path id="DejaVuSans-65" d="M 3597 1894 
L 3597 1613 
L 953 1613 
Q 991 1019 1311 708 
Q 1631 397 2203 397 
Q 2534 397 2845 478 
Q 3156 559 3463 722 
L 3463 178 
Q 3153 47 2828 -22 
Q 2503 -91 2169 -91 
Q 1331 -91 842 396 
Q 353 884 353 1716 
Q 353 2575 817 3079 
Q 1281 3584 2069 3584 
Q 2775 3584 3186 3129 
Q 3597 2675 3597 1894 
z
M 3022 2063 
Q 3016 2534 2758 2815 
Q 2500 3097 2075 3097 
Q 1594 3097 1305 2825 
Q 1016 2553 972 2059 
L 3022 2063 
z
" transform="scale(0.015625)"/>
       <path id="DejaVuSans-72" d="M 2631 2963 
Q 2534 3019 2420 3045 
Q 2306 3072 2169 3072 
Q 1681 3072 1420 2755 
Q 1159 2438 1159 1844 
L 1159 0 
L 581 0 
L 581 3500 
L 1159 3500 
L 1159 2956 
Q 1341 3275 1631 3429 
Q 1922 3584 2338 3584 
Q 2397 3584 2469 3576 
Q 2541 3569 2628 3553 
L 2631 2963 
z
" transform="scale(0.015625)"/>
       <path id="DejaVuSans-20" transform="scale(0.015625)"/>
       <path id="DejaVuSans-69" d="M 603 3500 
L 1178 3500 
L 1178 0 
L 603 0 
L 603 3500 
z
M 603 4863 
L 1178 4863 
L 1178 4134 
L 603 4134 
L 603 4863 
z
" transform="scale(0.015625)"/>
       <path id="DejaVuSans-6d" d="M 3328 2828 
Q 3544 3216 3844 3400 
Q 4144 3584 4550 3584 
Q 5097 3584 5394 3201 
Q 5691 2819 5691 2113 
L 5691 0 
L 5113 0 
L 5113 2094 
Q 5113 2597 4934 2840 
Q 4756 3084 4391 3084 
Q 3944 3084 3684 2787 
Q 3425 2491 3425 1978 
L 3425 0 
L 2847 0 
L 2847 2094 
Q 2847 2600 2669 2842 
Q 2491 3084 2119 3084 
Q 1678 3084 1418 2786 
Q 1159 2488 1159 1978 
L 1159 0 
L 581 0 
L 581 3500 
L 1159 3500 
L 1159 2956 
Q 1356 3278 1631 3431 
Q 1906 3584 2284 3584 
Q 2666 3584 2933 3390 
Q 3200 3197 3328 2828 
z
" transform="scale(0.015625)"/>
       <path id="DejaVuSans-74" d="M 1172 4494 
L 1172 3500 
L 2356 3500 
L 2356 3053 
L 1172 3053 
L 1172 1153 
Q 1172 725 1289 603 
Q 1406 481 1766 481 
L 2356 481 
L 2356 0 
L 1766 0 
Q 1100 0 847 248 
Q 594 497 594 1153 
L 594 3053 
L 172 3053 
L 172 3500 
L 594 3500 
L 594 4494 
L 1172 4494 
z
" transform="scale(0.015625)"/>
       <path id="DejaVuSans-28" d="M 1984 4856 
Q 1566 4138 1362 3434 
Q 1159 2731 1159 2009 
Q 1159 1288 1364 580 
Q 1569 -128 1984 -844 
L 1484 -844 
Q 1016 -109 783 600 
Q 550 1309 550 2009 
Q 550 2706 781 3412 
Q 1013 4119 1484 4856 
L 1984 4856 
z
" transform="scale(0.015625)"/>
       <path id="DejaVuSans-3bc" d="M 544 -1331 
L 544 3500 
L 1119 3500 
L 1119 1325 
Q 1119 872 1334 640 
Q 1550 409 1972 409 
Q 2434 409 2667 671 
Q 2900 934 2900 1459 
L 2900 3500 
L 3475 3500 
L 3475 806 
Q 3475 619 3529 530 
Q 3584 441 3700 441 
Q 3728 441 3778 458 
Q 3828 475 3916 513 
L 3916 50 
Q 3788 -22 3673 -56 
Q 3559 -91 3450 -91 
Q 3234 -91 3106 31 
Q 2978 153 2931 403 
Q 2775 156 2548 32 
Q 2322 -91 2016 -91 
Q 1697 -91 1473 31 
Q 1250 153 1119 397 
L 1119 -1331 
L 544 -1331 
z
" transform="scale(0.015625)"/>
       <path id="DejaVuSans-29" d="M 513 4856 
L 1013 4856 
Q 1481 4119 1714 3412 
Q 1947 2706 1947 2009 
Q 1947 1309 1714 600 
Q 1481 -109 1013 -844 
L 513 -844 
Q 928 -128 1133 580 
Q 1338 1288 1338 2009 
Q 1338 2731 1133 3434 
Q 928 4138 513 4856 
z
" transform="scale(0.015625)"/>
      </defs>
      <use xlink:href="#DejaVuSans-4c" transform="translate(0 0.684375)"/>
      <use xlink:href="#DejaVuSans-6f" transform="translate(55.712891 0.684375)"/>
      <use xlink:href="#DejaVuSans-77" transform="translate(116.894531 0.684375)"/>
      <use xlink:href="#DejaVuSans-65" transform="translate(198.681641 0.684375)"/>
      <use xlink:href="#DejaVuSans-72" transform="translate(260.205078 0.684375)"/>
      <use xlink:href="#DejaVuSans-20" transform="translate(301.318359 0.684375)"/>
      <use xlink:href="#DejaVuSans-4c" transform="translate(333.105469 0.684375)"/>
      <use xlink:href="#DejaVuSans-69" transform="translate(388.818359 0.684375)"/>
      <use xlink:href="#DejaVuSans-6d" transform="translate(416.601562 0.684375)"/>
      <use xlink:href="#DejaVuSans-69" transform="translate(514.013672 0.684375)"/>
      <use xlink:href="#DejaVuSans-74" transform="translate(541.796875 0.684375)"/>
      <use xlink:href="#DejaVuSans-20" transform="translate(581.005859 0.684375)"/>
      <use xlink:href="#DejaVuSans-28" transform="translate(612.792969 0.684375)"/>
      <use xlink:href="#DejaVuSans-3bc" transform="translate(651.806641 0.684375)"/>
      <use xlink:href="#DejaVuSans-6d" transform="translate(715.429688 0.684375)"/>
      <use xlink:href="#DejaVuSans-2212" transform="translate(813.798828 38.965625)scale(0.7)"/>
      <use xlink:href="#DejaVuSans-31" transform="translate(872.451172 38.965625)scale(0.7)"/>
      <use xlink:href="#DejaVuSans-29" transform="translate(919.72168 0.684375)"/>
     </g>
    </g>
   </g>
   <g id="matplotlib.axis_2">
    <g id="ytick_1">
     <g id="line2d_39">
      <defs>
       <path id="m02f29cbcfe" d="M 0 0 
L 5 0 
" style="stroke: #000000"/>
      </defs>
      <g>
       <use xlink:href="#m02f29cbcfe" x="225" y="438.599432" style="stroke: #000000"/>
      </g>
     </g>
     <g id="line2d_40">
      <defs>
       <path id="mcf27a09fba" d="M 0 0 
L -5 0 
" style="stroke: #000000"/>
      </defs>
      <g>
       <use xlink:href="#mcf27a09fba" x="612.5" y="438.599432" style="stroke: #000000"/>
      </g>
     </g>
     <g id="text_4">
      <!-- $\mathdefault{1.65\times10^{0}}$ -->
      <g transform="translate(131.2014 444.92893)scale(0.1666 -0.1666)">
       <defs>
        <path id="DejaVuSans-2e" d="M 684 794 
L 1344 794 
L 1344 0 
L 684 0 
L 684 794 
z
" transform="scale(0.015625)"/>
        <path id="DejaVuSans-36" d="M 2113 2584 
Q 1688 2584 1439 2293 
Q 1191 2003 1191 1497 
Q 1191 994 1439 701 
Q 1688 409 2113 409 
Q 2538 409 2786 701 
Q 3034 994 3034 1497 
Q 3034 2003 2786 2293 
Q 2538 2584 2113 2584 
z
M 3366 4563 
L 3366 3988 
Q 3128 4100 2886 4159 
Q 2644 4219 2406 4219 
Q 1781 4219 1451 3797 
Q 1122 3375 1075 2522 
Q 1259 2794 1537 2939 
Q 1816 3084 2150 3084 
Q 2853 3084 3261 2657 
Q 3669 2231 3669 1497 
Q 3669 778 3244 343 
Q 2819 -91 2113 -91 
Q 1303 -91 875 529 
Q 447 1150 447 2328 
Q 447 3434 972 4092 
Q 1497 4750 2381 4750 
Q 2619 4750 2861 4703 
Q 3103 4656 3366 4563 
z
" transform="scale(0.015625)"/>
        <path id="DejaVuSans-35" d="M 691 4666 
L 3169 4666 
L 3169 4134 
L 1269 4134 
L 1269 2991 
Q 1406 3038 1543 3061 
Q 1681 3084 1819 3084 
Q 2600 3084 3056 2656 
Q 3513 2228 3513 1497 
Q 3513 744 3044 326 
Q 2575 -91 1722 -91 
Q 1428 -91 1123 -41 
Q 819 9 494 109 
L 494 744 
Q 775 591 1075 516 
Q 1375 441 1709 441 
Q 2250 441 2565 725 
Q 2881 1009 2881 1497 
Q 2881 1984 2565 2268 
Q 2250 2553 1709 2553 
Q 1456 2553 1204 2497 
Q 953 2441 691 2322 
L 691 4666 
z
" transform="scale(0.015625)"/>
        <path id="DejaVuSans-d7" d="M 4488 3438 
L 3059 2003 
L 4488 575 
L 4116 197 
L 2681 1631 
L 1247 197 
L 878 575 
L 2303 2003 
L 878 3438 
L 1247 3816 
L 2681 2381 
L 4116 3816 
L 4488 3438 
z
" transform="scale(0.015625)"/>
       </defs>
       <use xlink:href="#DejaVuSans-31" transform="translate(0 0.765625)"/>
       <use xlink:href="#DejaVuSans-2e" transform="translate(63.623047 0.765625)"/>
       <use xlink:href="#DejaVuSans-36" transform="translate(95.410156 0.765625)"/>
       <use xlink:href="#DejaVuSans-35" transform="translate(159.033203 0.765625)"/>
       <use xlink:href="#DejaVuSans-d7" transform="translate(242.138672 0.765625)"/>
       <use xlink:href="#DejaVuSans-31" transform="translate(345.410156 0.765625)"/>
       <use xlink:href="#DejaVuSans-30" transform="translate(409.033203 0.765625)"/>
       <use xlink:href="#DejaVuSans-30" transform="translate(473.613281 39.046875)scale(0.7)"/>
      </g>
     </g>
    </g>
    <g id="ytick_2">
     <g id="line2d_41">
      <g>
       <use xlink:href="#m02f29cbcfe" x="225" y="363.703109" style="stroke: #000000"/>
      </g>
     </g>
     <g id="line2d_42">
      <g>
       <use xlink:href="#mcf27a09fba" x="612.5" y="363.703109" style="stroke: #000000"/>
      </g>
     </g>
     <g id="text_5">
      <!-- $\mathdefault{1.7\times10^{0}}$ -->
      <g transform="translate(143.03 370.032608)scale(0.1666 -0.1666)">
       <defs>
        <path id="DejaVuSans-37" d="M 525 4666 
L 3525 4666 
L 3525 4397 
L 1831 0 
L 1172 0 
L 2766 4134 
L 525 4134 
L 525 4666 
z
" transform="scale(0.015625)"/>
       </defs>
       <use xlink:href="#DejaVuSans-31" transform="translate(0 0.765625)"/>
       <use xlink:href="#DejaVuSans-2e" transform="translate(63.623047 0.765625)"/>
       <use xlink:href="#DejaVuSans-37" transform="translate(87.660156 0.765625)"/>
       <use xlink:href="#DejaVuSans-d7" transform="translate(170.765625 0.765625)"/>
       <use xlink:href="#DejaVuSans-31" transform="translate(274.037109 0.765625)"/>
       <use xlink:href="#DejaVuSans-30" transform="translate(337.660156 0.765625)"/>
       <use xlink:href="#DejaVuSans-30" transform="translate(402.240234 39.046875)scale(0.7)"/>
      </g>
     </g>
    </g>
    <g id="ytick_3">
     <g id="line2d_43">
      <g>
       <use xlink:href="#m02f29cbcfe" x="225" y="290.978004" style="stroke: #000000"/>
      </g>
     </g>
     <g id="line2d_44">
      <g>
       <use xlink:href="#mcf27a09fba" x="612.5" y="290.978004" style="stroke: #000000"/>
      </g>
     </g>
     <g id="text_6">
      <!-- $\mathdefault{1.75\times10^{0}}$ -->
      <g transform="translate(132.3676 297.307502)scale(0.1666 -0.1666)">
       <use xlink:href="#DejaVuSans-31" transform="translate(0 0.765625)"/>
       <use xlink:href="#DejaVuSans-2e" transform="translate(63.623047 0.765625)"/>
       <use xlink:href="#DejaVuSans-37" transform="translate(87.660156 0.765625)"/>
       <use xlink:href="#DejaVuSans-35" transform="translate(151.283203 0.765625)"/>
       <use xlink:href="#DejaVuSans-d7" transform="translate(234.388672 0.765625)"/>
       <use xlink:href="#DejaVuSans-31" transform="translate(337.660156 0.765625)"/>
       <use xlink:href="#DejaVuSans-30" transform="translate(401.283203 0.765625)"/>
       <use xlink:href="#DejaVuSans-30" transform="translate(465.863281 39.046875)scale(0.7)"/>
      </g>
     </g>
    </g>
    <g id="ytick_4">
     <g id="line2d_45">
      <g>
       <use xlink:href="#m02f29cbcfe" x="225" y="220.301767" style="stroke: #000000"/>
      </g>
     </g>
     <g id="line2d_46">
      <g>
       <use xlink:href="#mcf27a09fba" x="612.5" y="220.301767" style="stroke: #000000"/>
      </g>
     </g>
     <g id="text_7">
      <!-- $\mathdefault{1.8\times10^{0}}$ -->
      <g transform="translate(142.197 226.631266)scale(0.1666 -0.1666)">
       <defs>
        <path id="DejaVuSans-38" d="M 2034 2216 
Q 1584 2216 1326 1975 
Q 1069 1734 1069 1313 
Q 1069 891 1326 650 
Q 1584 409 2034 409 
Q 2484 409 2743 651 
Q 3003 894 3003 1313 
Q 3003 1734 2745 1975 
Q 2488 2216 2034 2216 
z
M 1403 2484 
Q 997 2584 770 2862 
Q 544 3141 544 3541 
Q 544 4100 942 4425 
Q 1341 4750 2034 4750 
Q 2731 4750 3128 4425 
Q 3525 4100 3525 3541 
Q 3525 3141 3298 2862 
Q 3072 2584 2669 2484 
Q 3125 2378 3379 2068 
Q 3634 1759 3634 1313 
Q 3634 634 3220 271 
Q 2806 -91 2034 -91 
Q 1263 -91 848 271 
Q 434 634 434 1313 
Q 434 1759 690 2068 
Q 947 2378 1403 2484 
z
M 1172 3481 
Q 1172 3119 1398 2916 
Q 1625 2713 2034 2713 
Q 2441 2713 2670 2916 
Q 2900 3119 2900 3481 
Q 2900 3844 2670 4047 
Q 2441 4250 2034 4250 
Q 1625 4250 1398 4047 
Q 1172 3844 1172 3481 
z
" transform="scale(0.015625)"/>
       </defs>
       <use xlink:href="#DejaVuSans-31" transform="translate(0 0.765625)"/>
       <use xlink:href="#DejaVuSans-2e" transform="translate(63.623047 0.765625)"/>
       <use xlink:href="#DejaVuSans-38" transform="translate(92.785156 0.765625)"/>
       <use xlink:href="#DejaVuSans-d7" transform="translate(175.890625 0.765625)"/>
       <use xlink:href="#DejaVuSans-31" transform="translate(279.162109 0.765625)"/>
       <use xlink:href="#DejaVuSans-30" transform="translate(342.785156 0.765625)"/>
       <use xlink:href="#DejaVuSans-30" transform="translate(407.365234 39.046875)scale(0.7)"/>
      </g>
     </g>
    </g>
    <g id="ytick_5">
     <g id="line2d_47">
      <g>
       <use xlink:href="#m02f29cbcfe" x="225" y="151.562112" style="stroke: #000000"/>
      </g>
     </g>
     <g id="line2d_48">
      <g>
       <use xlink:href="#mcf27a09fba" x="612.5" y="151.562112" style="stroke: #000000"/>
      </g>
     </g>
     <g id="text_8">
      <!-- $\mathdefault{1.85\times10^{0}}$ -->
      <g transform="translate(131.5346 157.89161)scale(0.1666 -0.1666)">
       <use xlink:href="#DejaVuSans-31" transform="translate(0 0.765625)"/>
       <use xlink:href="#DejaVuSans-2e" transform="translate(63.623047 0.765625)"/>
       <use xlink:href="#DejaVuSans-38" transform="translate(92.785156 0.765625)"/>
       <use xlink:href="#DejaVuSans-35" transform="translate(156.408203 0.765625)"/>
       <use xlink:href="#DejaVuSans-d7" transform="translate(239.513672 0.765625)"/>
       <use xlink:href="#DejaVuSans-31" transform="translate(342.785156 0.765625)"/>
       <use xlink:href="#DejaVuSans-30" transform="translate(406.408203 0.765625)"/>
       <use xlink:href="#DejaVuSans-30" transform="translate(470.988281 39.046875)scale(0.7)"/>
      </g>
     </g>
    </g>
    <g id="ytick_6">
     <g id="line2d_49">
      <g>
       <use xlink:href="#m02f29cbcfe" x="225" y="84.655734" style="stroke: #000000"/>
      </g>
     </g>
     <g id="line2d_50">
      <g>
       <use xlink:href="#mcf27a09fba" x="612.5" y="84.655734" style="stroke: #000000"/>
      </g>
     </g>
     <g id="text_9">
      <!-- $\mathdefault{1.9\times10^{0}}$ -->
      <g transform="translate(141.6972 90.985233)scale(0.1666 -0.1666)">
       <defs>
        <path id="DejaVuSans-39" d="M 703 97 
L 703 672 
Q 941 559 1184 500 
Q 1428 441 1663 441 
Q 2288 441 2617 861 
Q 2947 1281 2994 2138 
Q 2813 1869 2534 1725 
Q 2256 1581 1919 1581 
Q 1219 1581 811 2004 
Q 403 2428 403 3163 
Q 403 3881 828 4315 
Q 1253 4750 1959 4750 
Q 2769 4750 3195 4129 
Q 3622 3509 3622 2328 
Q 3622 1225 3098 567 
Q 2575 -91 1691 -91 
Q 1453 -91 1209 -44 
Q 966 3 703 97 
z
M 1959 2075 
Q 2384 2075 2632 2365 
Q 2881 2656 2881 3163 
Q 2881 3666 2632 3958 
Q 2384 4250 1959 4250 
Q 1534 4250 1286 3958 
Q 1038 3666 1038 3163 
Q 1038 2656 1286 2365 
Q 1534 2075 1959 2075 
z
" transform="scale(0.015625)"/>
       </defs>
       <use xlink:href="#DejaVuSans-31" transform="translate(0 0.765625)"/>
       <use xlink:href="#DejaVuSans-2e" transform="translate(63.623047 0.765625)"/>
       <use xlink:href="#DejaVuSans-39" transform="translate(95.410156 0.765625)"/>
       <use xlink:href="#DejaVuSans-d7" transform="translate(178.515625 0.765625)"/>
       <use xlink:href="#DejaVuSans-31" transform="translate(281.787109 0.765625)"/>
       <use xlink:href="#DejaVuSans-30" transform="translate(345.410156 0.765625)"/>
       <use xlink:href="#DejaVuSans-30" transform="translate(409.990234 39.046875)scale(0.7)"/>
      </g>
     </g>
    </g>
    <g id="text_10">
     <!-- $B(T) \ [\mathrm{erg \ s^{-1} \ cm^{-2} \ sr^{-1}}]$ -->
     <g transform="translate(123.0014 374.62)rotate(-90)scale(0.2 -0.2)">
      <defs>
       <path id="DejaVuSans-Oblique-42" d="M 1081 4666 
L 2694 4666 
Q 3350 4666 3675 4422 
Q 4000 4178 4000 3688 
Q 4000 3238 3720 2911 
Q 3441 2584 2988 2516 
Q 3375 2428 3569 2181 
Q 3763 1934 3763 1522 
Q 3763 819 3242 409 
Q 2722 0 1819 0 
L 172 0 
L 1081 4666 
z
M 1234 2228 
L 903 519 
L 1919 519 
Q 2491 519 2800 781 
Q 3109 1044 3109 1522 
Q 3109 1891 2904 2059 
Q 2700 2228 2247 2228 
L 1234 2228 
z
M 1606 4147 
L 1331 2741 
L 2272 2741 
Q 2775 2741 3058 2959 
Q 3341 3178 3341 3566 
Q 3341 3869 3150 4008 
Q 2959 4147 2541 4147 
L 1606 4147 
z
" transform="scale(0.015625)"/>
       <path id="DejaVuSans-Oblique-54" d="M 378 4666 
L 4325 4666 
L 4225 4134 
L 2559 4134 
L 1759 0 
L 1125 0 
L 1925 4134 
L 275 4134 
L 378 4666 
z
" transform="scale(0.015625)"/>
       <path id="DejaVuSans-5b" d="M 550 4863 
L 1875 4863 
L 1875 4416 
L 1125 4416 
L 1125 -397 
L 1875 -397 
L 1875 -844 
L 550 -844 
L 550 4863 
z
" transform="scale(0.015625)"/>
       <path id="DejaVuSans-67" d="M 2906 1791 
Q 2906 2416 2648 2759 
Q 2391 3103 1925 3103 
Q 1463 3103 1205 2759 
Q 947 2416 947 1791 
Q 947 1169 1205 825 
Q 1463 481 1925 481 
Q 2391 481 2648 825 
Q 2906 1169 2906 1791 
z
M 3481 434 
Q 3481 -459 3084 -895 
Q 2688 -1331 1869 -1331 
Q 1566 -1331 1297 -1286 
Q 1028 -1241 775 -1147 
L 775 -588 
Q 1028 -725 1275 -790 
Q 1522 -856 1778 -856 
Q 2344 -856 2625 -561 
Q 2906 -266 2906 331 
L 2906 616 
Q 2728 306 2450 153 
Q 2172 0 1784 0 
Q 1141 0 747 490 
Q 353 981 353 1791 
Q 353 2603 747 3093 
Q 1141 3584 1784 3584 
Q 2172 3584 2450 3431 
Q 2728 3278 2906 2969 
L 2906 3500 
L 3481 3500 
L 3481 434 
z
" transform="scale(0.015625)"/>
       <path id="DejaVuSans-73" d="M 2834 3397 
L 2834 2853 
Q 2591 2978 2328 3040 
Q 2066 3103 1784 3103 
Q 1356 3103 1142 2972 
Q 928 2841 928 2578 
Q 928 2378 1081 2264 
Q 1234 2150 1697 2047 
L 1894 2003 
Q 2506 1872 2764 1633 
Q 3022 1394 3022 966 
Q 3022 478 2636 193 
Q 2250 -91 1575 -91 
Q 1294 -91 989 -36 
Q 684 19 347 128 
L 347 722 
Q 666 556 975 473 
Q 1284 391 1588 391 
Q 1994 391 2212 530 
Q 2431 669 2431 922 
Q 2431 1156 2273 1281 
Q 2116 1406 1581 1522 
L 1381 1569 
Q 847 1681 609 1914 
Q 372 2147 372 2553 
Q 372 3047 722 3315 
Q 1072 3584 1716 3584 
Q 2034 3584 2315 3537 
Q 2597 3491 2834 3397 
z
" transform="scale(0.015625)"/>
       <path id="DejaVuSans-63" d="M 3122 3366 
L 3122 2828 
Q 2878 2963 2633 3030 
Q 2388 3097 2138 3097 
Q 1578 3097 1268 2742 
Q 959 2388 959 1747 
Q 959 1106 1268 751 
Q 1578 397 2138 397 
Q 2388 397 2633 464 
Q 2878 531 3122 666 
L 3122 134 
Q 2881 22 2623 -34 
Q 2366 -91 2075 -91 
Q 1284 -91 818 406 
Q 353 903 353 1747 
Q 353 2603 823 3093 
Q 1294 3584 2113 3584 
Q 2378 3584 2631 3529 
Q 2884 3475 3122 3366 
z
" transform="scale(0.015625)"/>
       <path id="DejaVuSans-32" d="M 1228 531 
L 3431 531 
L 3431 0 
L 469 0 
L 469 531 
Q 828 903 1448 1529 
Q 2069 2156 2228 2338 
Q 2531 2678 2651 2914 
Q 2772 3150 2772 3378 
Q 2772 3750 2511 3984 
Q 2250 4219 1831 4219 
Q 1534 4219 1204 4116 
Q 875 4013 500 3803 
L 500 4441 
Q 881 4594 1212 4672 
Q 1544 4750 1819 4750 
Q 2544 4750 2975 4387 
Q 3406 4025 3406 3419 
Q 3406 3131 3298 2873 
Q 3191 2616 2906 2266 
Q 2828 2175 2409 1742 
Q 1991 1309 1228 531 
z
" transform="scale(0.015625)"/>
       <path id="DejaVuSans-5d" d="M 1947 4863 
L 1947 -844 
L 622 -844 
L 622 -397 
L 1369 -397 
L 1369 4416 
L 622 4416 
L 622 4863 
L 1947 4863 
z
" transform="scale(0.015625)"/>
      </defs>
      <use xlink:href="#DejaVuSans-Oblique-42" transform="translate(0 0.765625)"/>
      <use xlink:href="#DejaVuSans-28" transform="translate(68.603516 0.765625)"/>
      <use xlink:href="#DejaVuSans-Oblique-54" transform="translate(107.617188 0.765625)"/>
      <use xlink:href="#DejaVuSans-29" transform="translate(168.701172 0.765625)"/>
      <use xlink:href="#DejaVuSans-5b" transform="translate(240.185222 0.765625)"/>
      <use xlink:href="#DejaVuSans-65" transform="translate(279.198894 0.765625)"/>
      <use xlink:href="#DejaVuSans-72" transform="translate(340.722332 0.765625)"/>
      <use xlink:href="#DejaVuSans-67" transform="translate(381.835613 0.765625)"/>
      <use xlink:href="#DejaVuSans-73" transform="translate(477.782554 0.765625)"/>
      <use xlink:href="#DejaVuSans-2212" transform="translate(530.839194 39.046875)scale(0.7)"/>
      <use xlink:href="#DejaVuSans-31" transform="translate(589.491538 39.046875)scale(0.7)"/>
      <use xlink:href="#DejaVuSans-63" transform="translate(669.232424 0.765625)"/>
      <use xlink:href="#DejaVuSans-6d" transform="translate(724.212893 0.765625)"/>
      <use xlink:href="#DejaVuSans-2212" transform="translate(822.582034 39.046875)scale(0.7)"/>
      <use xlink:href="#DejaVuSans-32" transform="translate(881.234377 39.046875)scale(0.7)"/>
      <use xlink:href="#DejaVuSans-73" transform="translate(960.975264 0.765625)"/>
      <use xlink:href="#DejaVuSans-72" transform="translate(1013.074873 0.765625)"/>
      <use xlink:href="#DejaVuSans-2212" transform="translate(1055.145186 39.046875)scale(0.7)"/>
      <use xlink:href="#DejaVuSans-31" transform="translate(1113.797529 39.046875)scale(0.7)"/>
      <use xlink:href="#DejaVuSans-5d" transform="translate(1161.068037 0.765625)"/>
     </g>
    </g>
   </g>
   <g id="line2d_51">
    <path d="M 225 78.22185 
L 612.5 78.22185 
" clip-path="url(#p0478cfb9b3)" style="fill: none; stroke-dasharray: 14.8,6.4; stroke-dashoffset: 0; stroke: #808080; stroke-opacity: 0.3; stroke-width: 4"/>
   </g>
   <g id="line2d_52">
    <path d="M 594.886364 430.92 
L 593.852374 421.485041 
L 592.806701 412.181338 
L 591.749077 403.009173 
L 590.679226 393.968816 
L 589.596861 385.060524 
L 588.501688 376.284545 
L 587.393398 367.641111 
L 586.271674 359.130443 
L 585.136186 350.752749 
L 583.986592 342.50822 
L 582.822538 334.397035 
L 581.643654 326.419357 
L 580.449559 318.575332 
L 579.239854 310.86509 
L 578.014127 303.288745 
L 576.771946 295.846392 
L 575.512864 288.538107 
L 574.236414 281.36395 
L 572.942112 274.323957 
L 571.62945 267.418146 
L 570.297901 260.646512 
L 568.946912 254.00903 
L 567.575908 247.505649 
L 566.184286 241.136298 
L 564.771417 234.900878 
L 563.336643 228.799265 
L 561.879273 222.831311 
L 560.398583 216.996837 
L 558.893817 211.295639 
L 557.364177 205.72748 
L 555.808828 200.292096 
L 554.22689 194.98919 
L 552.617439 189.818432 
L 550.979501 184.779458 
L 549.312049 179.871871 
L 547.613999 175.095236 
L 545.884209 170.449082 
L 544.121468 165.932899 
L 542.324497 161.546137 
L 540.49194 157.288204 
L 538.622359 153.158467 
L 536.714228 149.156248 
L 534.765922 145.280824 
L 532.775714 141.531425 
L 530.741762 137.907231 
L 528.6621 134.407376 
L 526.534624 131.030938 
L 524.357086 127.776944 
L 522.127072 124.644365 
L 519.841991 121.632116 
L 517.499053 118.739053 
L 515.095253 115.963972 
L 512.627344 113.305607 
L 510.091813 110.762627 
L 507.484849 108.333636 
L 504.802311 106.017168 
L 502.039685 103.81169 
L 499.192042 101.715593 
L 496.253982 99.727197 
L 493.219576 97.844743 
L 490.082289 96.066395 
L 486.8349 94.390235 
L 483.469398 92.814261 
L 479.976867 91.336387 
L 476.347339 89.954438 
L 472.569627 88.666148 
L 468.631113 87.469158 
L 464.517498 86.361015 
L 460.212485 85.339166 
L 455.69739 84.400959 
L 450.950652 83.543638 
L 445.947212 82.764342 
L 440.657709 82.060099 
L 435.04744 81.427829 
L 429.074975 80.864337 
L 422.690299 80.366311 
L 415.832265 79.93032 
L 408.425025 79.552811 
L 400.372897 79.230106 
L 391.552788 78.958401 
L 381.80261 78.733761 
L 370.902839 78.552118 
L 358.545697 78.409268 
L 344.280424 78.30087 
L 327.408187 78.222443 
L 306.758238 78.169361 
L 280.135823 78.136853 
L 242.613636 78.12 
" clip-path="url(#p0478cfb9b3)" style="fill: none; stroke: #add8e6; stroke-width: 4; stroke-linecap: square"/>
   </g>
   <g id="patch_3">
    <path d="M 225 448.56 
L 225 60.48 
" style="fill: none; stroke: #000000; stroke-width: 0.8; stroke-linejoin: miter; stroke-linecap: square"/>
   </g>
   <g id="patch_4">
    <path d="M 612.5 448.56 
L 612.5 60.48 
" style="fill: none; stroke: #000000; stroke-width: 0.8; stroke-linejoin: miter; stroke-linecap: square"/>
   </g>
   <g id="patch_5">
    <path d="M 225 448.56 
L 612.5 448.56 
" style="fill: none; stroke: #000000; stroke-width: 0.8; stroke-linejoin: miter; stroke-linecap: square"/>
   </g>
   <g id="patch_6">
    <path d="M 225 60.48 
L 612.5 60.48 
" style="fill: none; stroke: #000000; stroke-width: 0.8; stroke-linejoin: miter; stroke-linecap: square"/>
   </g>
   <g id="legend_1">
    <g id="patch_7">
     <path d="M 236.2 440.56 
L 494.09 440.56 
Q 497.29 440.56 497.29 437.36 
L 497.29 368.505 
Q 497.29 365.305 494.09 365.305 
L 236.2 365.305 
Q 233 365.305 233 368.505 
L 233 437.36 
Q 233 440.56 236.2 440.56 
z
" style="fill: #ffffff; opacity: 0.8; stroke: #ffffff; stroke-linejoin: miter"/>
    </g>
    <g id="line2d_53">
     <path d="M 239.4 378.2625 
L 255.4 378.2625 
L 271.4 378.2625 
" style="fill: none; stroke-dasharray: 14.8,6.4; stroke-dashoffset: 0; stroke: #808080; stroke-opacity: 0.3; stroke-width: 4"/>
    </g>
    <g id="text_11">
     <!-- Average Converged Value -->
     <g transform="translate(284.2 383.8625)scale(0.16 -0.16)">
      <defs>
       <path id="DejaVuSans-41" d="M 2188 4044 
L 1331 1722 
L 3047 1722 
L 2188 4044 
z
M 1831 4666 
L 2547 4666 
L 4325 0 
L 3669 0 
L 3244 1197 
L 1141 1197 
L 716 0 
L 50 0 
L 1831 4666 
z
" transform="scale(0.015625)"/>
       <path id="DejaVuSans-76" d="M 191 3500 
L 800 3500 
L 1894 563 
L 2988 3500 
L 3597 3500 
L 2284 0 
L 1503 0 
L 191 3500 
z
" transform="scale(0.015625)"/>
       <path id="DejaVuSans-61" d="M 2194 1759 
Q 1497 1759 1228 1600 
Q 959 1441 959 1056 
Q 959 750 1161 570 
Q 1363 391 1709 391 
Q 2188 391 2477 730 
Q 2766 1069 2766 1631 
L 2766 1759 
L 2194 1759 
z
M 3341 1997 
L 3341 0 
L 2766 0 
L 2766 531 
Q 2569 213 2275 61 
Q 1981 -91 1556 -91 
Q 1019 -91 701 211 
Q 384 513 384 1019 
Q 384 1609 779 1909 
Q 1175 2209 1959 2209 
L 2766 2209 
L 2766 2266 
Q 2766 2663 2505 2880 
Q 2244 3097 1772 3097 
Q 1472 3097 1187 3025 
Q 903 2953 641 2809 
L 641 3341 
Q 956 3463 1253 3523 
Q 1550 3584 1831 3584 
Q 2591 3584 2966 3190 
Q 3341 2797 3341 1997 
z
" transform="scale(0.015625)"/>
       <path id="DejaVuSans-43" d="M 4122 4306 
L 4122 3641 
Q 3803 3938 3442 4084 
Q 3081 4231 2675 4231 
Q 1875 4231 1450 3742 
Q 1025 3253 1025 2328 
Q 1025 1406 1450 917 
Q 1875 428 2675 428 
Q 3081 428 3442 575 
Q 3803 722 4122 1019 
L 4122 359 
Q 3791 134 3420 21 
Q 3050 -91 2638 -91 
Q 1578 -91 968 557 
Q 359 1206 359 2328 
Q 359 3453 968 4101 
Q 1578 4750 2638 4750 
Q 3056 4750 3426 4639 
Q 3797 4528 4122 4306 
z
" transform="scale(0.015625)"/>
       <path id="DejaVuSans-6e" d="M 3513 2113 
L 3513 0 
L 2938 0 
L 2938 2094 
Q 2938 2591 2744 2837 
Q 2550 3084 2163 3084 
Q 1697 3084 1428 2787 
Q 1159 2491 1159 1978 
L 1159 0 
L 581 0 
L 581 3500 
L 1159 3500 
L 1159 2956 
Q 1366 3272 1645 3428 
Q 1925 3584 2291 3584 
Q 2894 3584 3203 3211 
Q 3513 2838 3513 2113 
z
" transform="scale(0.015625)"/>
       <path id="DejaVuSans-64" d="M 2906 2969 
L 2906 4863 
L 3481 4863 
L 3481 0 
L 2906 0 
L 2906 525 
Q 2725 213 2448 61 
Q 2172 -91 1784 -91 
Q 1150 -91 751 415 
Q 353 922 353 1747 
Q 353 2572 751 3078 
Q 1150 3584 1784 3584 
Q 2172 3584 2448 3432 
Q 2725 3281 2906 2969 
z
M 947 1747 
Q 947 1113 1208 752 
Q 1469 391 1925 391 
Q 2381 391 2643 752 
Q 2906 1113 2906 1747 
Q 2906 2381 2643 2742 
Q 2381 3103 1925 3103 
Q 1469 3103 1208 2742 
Q 947 2381 947 1747 
z
" transform="scale(0.015625)"/>
       <path id="DejaVuSans-56" d="M 1831 0 
L 50 4666 
L 709 4666 
L 2188 738 
L 3669 4666 
L 4325 4666 
L 2547 0 
L 1831 0 
z
" transform="scale(0.015625)"/>
       <path id="DejaVuSans-6c" d="M 603 4863 
L 1178 4863 
L 1178 0 
L 603 0 
L 603 4863 
z
" transform="scale(0.015625)"/>
       <path id="DejaVuSans-75" d="M 544 1381 
L 544 3500 
L 1119 3500 
L 1119 1403 
Q 1119 906 1312 657 
Q 1506 409 1894 409 
Q 2359 409 2629 706 
Q 2900 1003 2900 1516 
L 2900 3500 
L 3475 3500 
L 3475 0 
L 2900 0 
L 2900 538 
Q 2691 219 2414 64 
Q 2138 -91 1772 -91 
Q 1169 -91 856 284 
Q 544 659 544 1381 
z
M 1991 3584 
L 1991 3584 
z
" transform="scale(0.015625)"/>
      </defs>
      <use xlink:href="#DejaVuSans-41"/>
      <use xlink:href="#DejaVuSans-76" x="62.533203"/>
      <use xlink:href="#DejaVuSans-65" x="121.712891"/>
      <use xlink:href="#DejaVuSans-72" x="183.236328"/>
      <use xlink:href="#DejaVuSans-61" x="224.349609"/>
      <use xlink:href="#DejaVuSans-67" x="285.628906"/>
      <use xlink:href="#DejaVuSans-65" x="349.105469"/>
      <use xlink:href="#DejaVuSans-20" x="410.628906"/>
      <use xlink:href="#DejaVuSans-43" x="442.416016"/>
      <use xlink:href="#DejaVuSans-6f" x="512.240234"/>
      <use xlink:href="#DejaVuSans-6e" x="573.421875"/>
      <use xlink:href="#DejaVuSans-76" x="636.800781"/>
      <use xlink:href="#DejaVuSans-65" x="695.980469"/>
      <use xlink:href="#DejaVuSans-72" x="757.503906"/>
      <use xlink:href="#DejaVuSans-67" x="796.867188"/>
      <use xlink:href="#DejaVuSans-65" x="860.34375"/>
      <use xlink:href="#DejaVuSans-64" x="921.867188"/>
      <use xlink:href="#DejaVuSans-20" x="985.34375"/>
      <use xlink:href="#DejaVuSans-56" x="1017.130859"/>
      <use xlink:href="#DejaVuSans-61" x="1077.789062"/>
      <use xlink:href="#DejaVuSans-6c" x="1139.068359"/>
      <use xlink:href="#DejaVuSans-75" x="1166.851562"/>
      <use xlink:href="#DejaVuSans-65" x="1230.230469"/>
     </g>
    </g>
    <g id="PathCollection_2">
     <g>
      <use xlink:href="#mfe0a6be2d0" x="255.4" y="403.1475" style="fill: #add8e6; stroke: #add8e6"/>
     </g>
    </g>
    <g id="text_12">
     <!-- Final Variable Value -->
     <g transform="translate(284.2 407.3475)scale(0.16 -0.16)">
      <defs>
       <path id="DejaVuSans-46" d="M 628 4666 
L 3309 4666 
L 3309 4134 
L 1259 4134 
L 1259 2759 
L 3109 2759 
L 3109 2228 
L 1259 2228 
L 1259 0 
L 628 0 
L 628 4666 
z
" transform="scale(0.015625)"/>
       <path id="DejaVuSans-62" d="M 3116 1747 
Q 3116 2381 2855 2742 
Q 2594 3103 2138 3103 
Q 1681 3103 1420 2742 
Q 1159 2381 1159 1747 
Q 1159 1113 1420 752 
Q 1681 391 2138 391 
Q 2594 391 2855 752 
Q 3116 1113 3116 1747 
z
M 1159 2969 
Q 1341 3281 1617 3432 
Q 1894 3584 2278 3584 
Q 2916 3584 3314 3078 
Q 3713 2572 3713 1747 
Q 3713 922 3314 415 
Q 2916 -91 2278 -91 
Q 1894 -91 1617 61 
Q 1341 213 1159 525 
L 1159 0 
L 581 0 
L 581 4863 
L 1159 4863 
L 1159 2969 
z
" transform="scale(0.015625)"/>
      </defs>
      <use xlink:href="#DejaVuSans-46"/>
      <use xlink:href="#DejaVuSans-69" x="50.269531"/>
      <use xlink:href="#DejaVuSans-6e" x="78.052734"/>
      <use xlink:href="#DejaVuSans-61" x="141.431641"/>
      <use xlink:href="#DejaVuSans-6c" x="202.710938"/>
      <use xlink:href="#DejaVuSans-20" x="230.494141"/>
      <use xlink:href="#DejaVuSans-56" x="262.28125"/>
      <use xlink:href="#DejaVuSans-61" x="322.939453"/>
      <use xlink:href="#DejaVuSans-72" x="384.21875"/>
      <use xlink:href="#DejaVuSans-69" x="425.332031"/>
      <use xlink:href="#DejaVuSans-61" x="453.115234"/>
      <use xlink:href="#DejaVuSans-62" x="514.394531"/>
      <use xlink:href="#DejaVuSans-6c" x="577.871094"/>
      <use xlink:href="#DejaVuSans-65" x="605.654297"/>
      <use xlink:href="#DejaVuSans-20" x="667.177734"/>
      <use xlink:href="#DejaVuSans-56" x="698.964844"/>
      <use xlink:href="#DejaVuSans-61" x="759.623047"/>
      <use xlink:href="#DejaVuSans-6c" x="820.902344"/>
      <use xlink:href="#DejaVuSans-75" x="848.685547"/>
      <use xlink:href="#DejaVuSans-65" x="912.064453"/>
     </g>
    </g>
    <g id="line2d_54">
     <path d="M 239.4 425.2325 
L 255.4 425.2325 
L 271.4 425.2325 
" style="fill: none; stroke: #add8e6; stroke-width: 4; stroke-linecap: square"/>
    </g>
    <g id="text_13">
     <!-- Path of Convergence -->
     <g transform="translate(284.2 430.8325)scale(0.16 -0.16)">
      <defs>
       <path id="DejaVuSans-50" d="M 1259 4147 
L 1259 2394 
L 2053 2394 
Q 2494 2394 2734 2622 
Q 2975 2850 2975 3272 
Q 2975 3691 2734 3919 
Q 2494 4147 2053 4147 
L 1259 4147 
z
M 628 4666 
L 2053 4666 
Q 2838 4666 3239 4311 
Q 3641 3956 3641 3272 
Q 3641 2581 3239 2228 
Q 2838 1875 2053 1875 
L 1259 1875 
L 1259 0 
L 628 0 
L 628 4666 
z
" transform="scale(0.015625)"/>
       <path id="DejaVuSans-68" d="M 3513 2113 
L 3513 0 
L 2938 0 
L 2938 2094 
Q 2938 2591 2744 2837 
Q 2550 3084 2163 3084 
Q 1697 3084 1428 2787 
Q 1159 2491 1159 1978 
L 1159 0 
L 581 0 
L 581 4863 
L 1159 4863 
L 1159 2956 
Q 1366 3272 1645 3428 
Q 1925 3584 2291 3584 
Q 2894 3584 3203 3211 
Q 3513 2838 3513 2113 
z
" transform="scale(0.015625)"/>
       <path id="DejaVuSans-66" d="M 2375 4863 
L 2375 4384 
L 1825 4384 
Q 1516 4384 1395 4259 
Q 1275 4134 1275 3809 
L 1275 3500 
L 2222 3500 
L 2222 3053 
L 1275 3053 
L 1275 0 
L 697 0 
L 697 3053 
L 147 3053 
L 147 3500 
L 697 3500 
L 697 3744 
Q 697 4328 969 4595 
Q 1241 4863 1831 4863 
L 2375 4863 
z
" transform="scale(0.015625)"/>
      </defs>
      <use xlink:href="#DejaVuSans-50"/>
      <use xlink:href="#DejaVuSans-61" x="55.802734"/>
      <use xlink:href="#DejaVuSans-74" x="117.082031"/>
      <use xlink:href="#DejaVuSans-68" x="156.291016"/>
      <use xlink:href="#DejaVuSans-20" x="219.669922"/>
      <use xlink:href="#DejaVuSans-6f" x="251.457031"/>
      <use xlink:href="#DejaVuSans-66" x="312.638672"/>
      <use xlink:href="#DejaVuSans-20" x="347.84375"/>
      <use xlink:href="#DejaVuSans-43" x="379.630859"/>
      <use xlink:href="#DejaVuSans-6f" x="449.455078"/>
      <use xlink:href="#DejaVuSans-6e" x="510.636719"/>
      <use xlink:href="#DejaVuSans-76" x="574.015625"/>
      <use xlink:href="#DejaVuSans-65" x="633.195312"/>
      <use xlink:href="#DejaVuSans-72" x="694.71875"/>
      <use xlink:href="#DejaVuSans-67" x="734.082031"/>
      <use xlink:href="#DejaVuSans-65" x="797.558594"/>
      <use xlink:href="#DejaVuSans-6e" x="859.082031"/>
      <use xlink:href="#DejaVuSans-63" x="922.460938"/>
      <use xlink:href="#DejaVuSans-65" x="977.441406"/>
     </g>
    </g>
   </g>
  </g>
  <g id="axes_2">
   <g id="patch_8">
    <path d="M 728.75 448.56 
L 1116.25 448.56 
L 1116.25 60.48 
L 728.75 60.48 
z
" style="fill: #ffffff"/>
   </g>
   <g id="PathCollection_3">
    <defs>
     <path id="m73b3208d07" d="M 0 6.123724 
C 1.624031 6.123724 3.181764 5.47849 4.330127 4.330127 
C 5.47849 3.181764 6.123724 1.624031 6.123724 0 
C 6.123724 -1.624031 5.47849 -3.181764 4.330127 -4.330127 
C 3.181764 -5.47849 1.624031 -6.123724 0 -6.123724 
C -1.624031 -6.123724 -3.181764 -5.47849 -4.330127 -4.330127 
C -5.47849 -3.181764 -6.123724 -1.624031 -6.123724 0 
C -6.123724 1.624031 -5.47849 3.181764 -4.330127 4.330127 
C -3.181764 5.47849 -1.624031 6.123724 0 6.123724 
z
" style="stroke: #6495ed"/>
    </defs>
    <g clip-path="url(#p0a3076883c)">
     <use xlink:href="#m73b3208d07" x="1098.636364" y="78.122658" style="fill: #6495ed; stroke: #6495ed"/>
    </g>
   </g>
   <g id="matplotlib.axis_3">
    <g id="xtick_19">
     <g id="line2d_55">
      <path d="M 746.363636 448.56 
L 746.363636 60.48 
" clip-path="url(#p0a3076883c)" style="fill: none; stroke: #b0b0b0; stroke-opacity: 0.2; stroke-linecap: square"/>
     </g>
     <g id="line2d_56">
      <g>
       <use xlink:href="#m95ce30ea05" x="746.363636" y="448.56" style="stroke: #000000; stroke-width: 1.5"/>
      </g>
     </g>
     <g id="line2d_57">
      <g>
       <use xlink:href="#m470762e2e3" x="746.363636" y="60.48" style="stroke: #000000; stroke-width: 1.5"/>
      </g>
     </g>
     <g id="text_14">
      <!-- $\mathdefault{10^{0}}$ -->
      <g transform="translate(731.702836 468.218997)scale(0.1666 -0.1666)">
       <use xlink:href="#DejaVuSans-31" transform="translate(0 0.765625)"/>
       <use xlink:href="#DejaVuSans-30" transform="translate(63.623047 0.765625)"/>
       <use xlink:href="#DejaVuSans-30" transform="translate(128.203125 39.046875)scale(0.7)"/>
      </g>
     </g>
    </g>
    <g id="xtick_20">
     <g id="line2d_58">
      <g>
       <use xlink:href="#m73aa0819f6" x="729.114688" y="448.56" style="stroke: #000000"/>
      </g>
     </g>
     <g id="line2d_59">
      <g>
       <use xlink:href="#m48c4147199" x="729.114688" y="60.48" style="stroke: #000000"/>
      </g>
     </g>
    </g>
    <g id="xtick_21">
     <g id="line2d_60">
      <g>
       <use xlink:href="#m73aa0819f6" x="859.841254" y="448.56" style="stroke: #000000"/>
      </g>
     </g>
     <g id="line2d_61">
      <g>
       <use xlink:href="#m48c4147199" x="859.841254" y="60.48" style="stroke: #000000"/>
      </g>
     </g>
    </g>
    <g id="xtick_22">
     <g id="line2d_62">
      <g>
       <use xlink:href="#m73aa0819f6" x="926.221404" y="448.56" style="stroke: #000000"/>
      </g>
     </g>
     <g id="line2d_63">
      <g>
       <use xlink:href="#m48c4147199" x="926.221404" y="60.48" style="stroke: #000000"/>
      </g>
     </g>
    </g>
    <g id="xtick_23">
     <g id="line2d_64">
      <g>
       <use xlink:href="#m73aa0819f6" x="973.318871" y="448.56" style="stroke: #000000"/>
      </g>
     </g>
     <g id="line2d_65">
      <g>
       <use xlink:href="#m48c4147199" x="973.318871" y="60.48" style="stroke: #000000"/>
      </g>
     </g>
    </g>
    <g id="xtick_24">
     <g id="line2d_66">
      <g>
       <use xlink:href="#m73aa0819f6" x="1009.850504" y="448.56" style="stroke: #000000"/>
      </g>
     </g>
     <g id="line2d_67">
      <g>
       <use xlink:href="#m48c4147199" x="1009.850504" y="60.48" style="stroke: #000000"/>
      </g>
     </g>
    </g>
    <g id="xtick_25">
     <g id="line2d_68">
      <g>
       <use xlink:href="#m73aa0819f6" x="1039.699022" y="448.56" style="stroke: #000000"/>
      </g>
     </g>
     <g id="line2d_69">
      <g>
       <use xlink:href="#m48c4147199" x="1039.699022" y="60.48" style="stroke: #000000"/>
      </g>
     </g>
    </g>
    <g id="xtick_26">
     <g id="line2d_70">
      <g>
       <use xlink:href="#m73aa0819f6" x="1064.935584" y="448.56" style="stroke: #000000"/>
      </g>
     </g>
     <g id="line2d_71">
      <g>
       <use xlink:href="#m48c4147199" x="1064.935584" y="60.48" style="stroke: #000000"/>
      </g>
     </g>
    </g>
    <g id="xtick_27">
     <g id="line2d_72">
      <g>
       <use xlink:href="#m73aa0819f6" x="1086.796488" y="448.56" style="stroke: #000000"/>
      </g>
     </g>
     <g id="line2d_73">
      <g>
       <use xlink:href="#m48c4147199" x="1086.796488" y="60.48" style="stroke: #000000"/>
      </g>
     </g>
    </g>
    <g id="xtick_28">
     <g id="line2d_74">
      <g>
       <use xlink:href="#m73aa0819f6" x="1106.079172" y="448.56" style="stroke: #000000"/>
      </g>
     </g>
     <g id="line2d_75">
      <g>
       <use xlink:href="#m48c4147199" x="1106.079172" y="60.48" style="stroke: #000000"/>
      </g>
     </g>
    </g>
    <g id="text_15">
     <!-- Upper Limit ($\mathrm{\mu m^{-1}}$) -->
     <g transform="translate(826.4 493.683756)scale(0.2 -0.2)">
      <defs>
       <path id="DejaVuSans-55" d="M 556 4666 
L 1191 4666 
L 1191 1831 
Q 1191 1081 1462 751 
Q 1734 422 2344 422 
Q 2950 422 3222 751 
Q 3494 1081 3494 1831 
L 3494 4666 
L 4128 4666 
L 4128 1753 
Q 4128 841 3676 375 
Q 3225 -91 2344 -91 
Q 1459 -91 1007 375 
Q 556 841 556 1753 
L 556 4666 
z
" transform="scale(0.015625)"/>
       <path id="DejaVuSans-70" d="M 1159 525 
L 1159 -1331 
L 581 -1331 
L 581 3500 
L 1159 3500 
L 1159 2969 
Q 1341 3281 1617 3432 
Q 1894 3584 2278 3584 
Q 2916 3584 3314 3078 
Q 3713 2572 3713 1747 
Q 3713 922 3314 415 
Q 2916 -91 2278 -91 
Q 1894 -91 1617 61 
Q 1341 213 1159 525 
z
M 3116 1747 
Q 3116 2381 2855 2742 
Q 2594 3103 2138 3103 
Q 1681 3103 1420 2742 
Q 1159 2381 1159 1747 
Q 1159 1113 1420 752 
Q 1681 391 2138 391 
Q 2594 391 2855 752 
Q 3116 1113 3116 1747 
z
" transform="scale(0.015625)"/>
      </defs>
      <use xlink:href="#DejaVuSans-55" transform="translate(0 0.684375)"/>
      <use xlink:href="#DejaVuSans-70" transform="translate(73.193359 0.684375)"/>
      <use xlink:href="#DejaVuSans-70" transform="translate(136.669922 0.684375)"/>
      <use xlink:href="#DejaVuSans-65" transform="translate(200.146484 0.684375)"/>
      <use xlink:href="#DejaVuSans-72" transform="translate(261.669922 0.684375)"/>
      <use xlink:href="#DejaVuSans-20" transform="translate(302.783203 0.684375)"/>
      <use xlink:href="#DejaVuSans-4c" transform="translate(334.570312 0.684375)"/>
      <use xlink:href="#DejaVuSans-69" transform="translate(390.283203 0.684375)"/>
      <use xlink:href="#DejaVuSans-6d" transform="translate(418.066406 0.684375)"/>
      <use xlink:href="#DejaVuSans-69" transform="translate(515.478516 0.684375)"/>
      <use xlink:href="#DejaVuSans-74" transform="translate(543.261719 0.684375)"/>
      <use xlink:href="#DejaVuSans-20" transform="translate(582.470703 0.684375)"/>
      <use xlink:href="#DejaVuSans-28" transform="translate(614.257812 0.684375)"/>
      <use xlink:href="#DejaVuSans-3bc" transform="translate(653.271484 0.684375)"/>
      <use xlink:href="#DejaVuSans-6d" transform="translate(716.894531 0.684375)"/>
      <use xlink:href="#DejaVuSans-2212" transform="translate(815.263672 38.965625)scale(0.7)"/>
      <use xlink:href="#DejaVuSans-31" transform="translate(873.916016 38.965625)scale(0.7)"/>
      <use xlink:href="#DejaVuSans-29" transform="translate(921.186523 0.684375)"/>
     </g>
    </g>
   </g>
   <g id="matplotlib.axis_4">
    <g id="ytick_7">
     <g id="line2d_76">
      <path d="M 728.75 204.57108 
L 1116.25 204.57108 
" clip-path="url(#p0a3076883c)" style="fill: none; stroke: #b0b0b0; stroke-opacity: 0.2; stroke-linecap: square"/>
     </g>
     <g id="line2d_77">
      <defs>
       <path id="mcd4c1f3698" d="M 0 0 
L 12 0 
" style="stroke: #000000"/>
      </defs>
      <g>
       <use xlink:href="#mcd4c1f3698" x="728.75" y="204.57108" style="stroke: #000000"/>
      </g>
     </g>
     <g id="line2d_78">
      <defs>
       <path id="m4a5151fa6a" d="M 0 0 
L -12 0 
" style="stroke: #000000"/>
      </defs>
      <g>
       <use xlink:href="#m4a5151fa6a" x="1116.25" y="204.57108" style="stroke: #000000"/>
      </g>
     </g>
     <g id="text_16">
      <!-- $\mathdefault{10^{0}}$ -->
      <g transform="translate(692.4284 210.900578)scale(0.1666 -0.1666)">
       <use xlink:href="#DejaVuSans-31" transform="translate(0 0.765625)"/>
       <use xlink:href="#DejaVuSans-30" transform="translate(63.623047 0.765625)"/>
       <use xlink:href="#DejaVuSans-30" transform="translate(128.203125 39.046875)scale(0.7)"/>
      </g>
     </g>
    </g>
    <g id="ytick_8">
     <g id="line2d_79">
      <g>
       <use xlink:href="#m02f29cbcfe" x="728.75" y="440.820802" style="stroke: #000000"/>
      </g>
     </g>
     <g id="line2d_80">
      <g>
       <use xlink:href="#mcf27a09fba" x="1116.25" y="440.820802" style="stroke: #000000"/>
      </g>
     </g>
     <g id="text_17">
      <!-- $\mathdefault{3\times10^{-1}}$ -->
      <g transform="translate(651.6114 447.1503)scale(0.1666 -0.1666)">
       <defs>
        <path id="DejaVuSans-33" d="M 2597 2516 
Q 3050 2419 3304 2112 
Q 3559 1806 3559 1356 
Q 3559 666 3084 287 
Q 2609 -91 1734 -91 
Q 1441 -91 1130 -33 
Q 819 25 488 141 
L 488 750 
Q 750 597 1062 519 
Q 1375 441 1716 441 
Q 2309 441 2620 675 
Q 2931 909 2931 1356 
Q 2931 1769 2642 2001 
Q 2353 2234 1838 2234 
L 1294 2234 
L 1294 2753 
L 1863 2753 
Q 2328 2753 2575 2939 
Q 2822 3125 2822 3475 
Q 2822 3834 2567 4026 
Q 2313 4219 1838 4219 
Q 1578 4219 1281 4162 
Q 984 4106 628 3988 
L 628 4550 
Q 988 4650 1302 4700 
Q 1616 4750 1894 4750 
Q 2613 4750 3031 4423 
Q 3450 4097 3450 3541 
Q 3450 3153 3228 2886 
Q 3006 2619 2597 2516 
z
" transform="scale(0.015625)"/>
       </defs>
       <use xlink:href="#DejaVuSans-33" transform="translate(0 0.684375)"/>
       <use xlink:href="#DejaVuSans-d7" transform="translate(83.105469 0.684375)"/>
       <use xlink:href="#DejaVuSans-31" transform="translate(186.376953 0.684375)"/>
       <use xlink:href="#DejaVuSans-30" transform="translate(250 0.684375)"/>
       <use xlink:href="#DejaVuSans-2212" transform="translate(314.580078 38.965625)scale(0.7)"/>
       <use xlink:href="#DejaVuSans-31" transform="translate(373.232422 38.965625)scale(0.7)"/>
      </g>
     </g>
    </g>
    <g id="ytick_9">
     <g id="line2d_81">
      <g>
       <use xlink:href="#m02f29cbcfe" x="728.75" y="384.370349" style="stroke: #000000"/>
      </g>
     </g>
     <g id="line2d_82">
      <g>
       <use xlink:href="#mcf27a09fba" x="1116.25" y="384.370349" style="stroke: #000000"/>
      </g>
     </g>
     <g id="text_18">
      <!-- $\mathdefault{4\times10^{-1}}$ -->
      <g transform="translate(651.6114 390.699848)scale(0.1666 -0.1666)">
       <defs>
        <path id="DejaVuSans-34" d="M 2419 4116 
L 825 1625 
L 2419 1625 
L 2419 4116 
z
M 2253 4666 
L 3047 4666 
L 3047 1625 
L 3713 1625 
L 3713 1100 
L 3047 1100 
L 3047 0 
L 2419 0 
L 2419 1100 
L 313 1100 
L 313 1709 
L 2253 4666 
z
" transform="scale(0.015625)"/>
       </defs>
       <use xlink:href="#DejaVuSans-34" transform="translate(0 0.684375)"/>
       <use xlink:href="#DejaVuSans-d7" transform="translate(83.105469 0.684375)"/>
       <use xlink:href="#DejaVuSans-31" transform="translate(186.376953 0.684375)"/>
       <use xlink:href="#DejaVuSans-30" transform="translate(250 0.684375)"/>
       <use xlink:href="#DejaVuSans-2212" transform="translate(314.580078 38.965625)scale(0.7)"/>
       <use xlink:href="#DejaVuSans-31" transform="translate(373.232422 38.965625)scale(0.7)"/>
      </g>
     </g>
    </g>
    <g id="ytick_10">
     <g id="line2d_83">
      <g>
       <use xlink:href="#m02f29cbcfe" x="728.75" y="340.583976" style="stroke: #000000"/>
      </g>
     </g>
     <g id="line2d_84">
      <g>
       <use xlink:href="#mcf27a09fba" x="1116.25" y="340.583976" style="stroke: #000000"/>
      </g>
     </g>
    </g>
    <g id="ytick_11">
     <g id="line2d_85">
      <g>
       <use xlink:href="#m02f29cbcfe" x="728.75" y="304.807905" style="stroke: #000000"/>
      </g>
     </g>
     <g id="line2d_86">
      <g>
       <use xlink:href="#mcf27a09fba" x="1116.25" y="304.807905" style="stroke: #000000"/>
      </g>
     </g>
     <g id="text_19">
      <!-- $\mathdefault{6\times10^{-1}}$ -->
      <g transform="translate(651.6114 311.137403)scale(0.1666 -0.1666)">
       <use xlink:href="#DejaVuSans-36" transform="translate(0 0.684375)"/>
       <use xlink:href="#DejaVuSans-d7" transform="translate(83.105469 0.684375)"/>
       <use xlink:href="#DejaVuSans-31" transform="translate(186.376953 0.684375)"/>
       <use xlink:href="#DejaVuSans-30" transform="translate(250 0.684375)"/>
       <use xlink:href="#DejaVuSans-2212" transform="translate(314.580078 38.965625)scale(0.7)"/>
       <use xlink:href="#DejaVuSans-31" transform="translate(373.232422 38.965625)scale(0.7)"/>
      </g>
     </g>
    </g>
    <g id="ytick_12">
     <g id="line2d_87">
      <g>
       <use xlink:href="#m02f29cbcfe" x="728.75" y="274.559667" style="stroke: #000000"/>
      </g>
     </g>
     <g id="line2d_88">
      <g>
       <use xlink:href="#mcf27a09fba" x="1116.25" y="274.559667" style="stroke: #000000"/>
      </g>
     </g>
    </g>
    <g id="ytick_13">
     <g id="line2d_89">
      <g>
       <use xlink:href="#m02f29cbcfe" x="728.75" y="248.357452" style="stroke: #000000"/>
      </g>
     </g>
     <g id="line2d_90">
      <g>
       <use xlink:href="#mcf27a09fba" x="1116.25" y="248.357452" style="stroke: #000000"/>
      </g>
     </g>
    </g>
    <g id="ytick_14">
     <g id="line2d_91">
      <g>
       <use xlink:href="#m02f29cbcfe" x="728.75" y="225.245461" style="stroke: #000000"/>
      </g>
     </g>
     <g id="line2d_92">
      <g>
       <use xlink:href="#mcf27a09fba" x="1116.25" y="225.245461" style="stroke: #000000"/>
      </g>
     </g>
    </g>
    <g id="ytick_15">
     <g id="line2d_93">
      <g>
       <use xlink:href="#m02f29cbcfe" x="728.75" y="68.558183" style="stroke: #000000"/>
      </g>
     </g>
     <g id="line2d_94">
      <g>
       <use xlink:href="#mcf27a09fba" x="1116.25" y="68.558183" style="stroke: #000000"/>
      </g>
     </g>
     <g id="text_20">
      <!-- $\mathdefault{2\times10^{0}}$ -->
      <g transform="translate(661.4408 74.887681)scale(0.1666 -0.1666)">
       <use xlink:href="#DejaVuSans-32" transform="translate(0 0.765625)"/>
       <use xlink:href="#DejaVuSans-d7" transform="translate(83.105469 0.765625)"/>
       <use xlink:href="#DejaVuSans-31" transform="translate(186.376953 0.765625)"/>
       <use xlink:href="#DejaVuSans-30" transform="translate(250 0.765625)"/>
       <use xlink:href="#DejaVuSans-30" transform="translate(314.580078 39.046875)scale(0.7)"/>
      </g>
     </g>
    </g>
   </g>
   <g id="line2d_95">
    <path d="M 728.75 78.12 
L 1116.25 78.12 
" clip-path="url(#p0a3076883c)" style="fill: none; stroke-dasharray: 14.8,6.4; stroke-dashoffset: 0; stroke: #808080; stroke-opacity: 0.3; stroke-width: 4"/>
   </g>
   <g id="line2d_96">
    <path d="M 746.363636 430.92 
L 761.967209 391.217755 
L 776.212154 356.514958 
L 789.316233 326.008386 
L 801.448716 299.069175 
L 812.743787 275.194745 
L 823.30962 253.976306 
L 833.234695 235.076263 
L 842.592305 218.212115 
L 851.443844 203.144721 
L 859.841254 189.669606 
L 867.828867 177.610387 
L 875.444826 166.813747 
L 882.722184 157.145521 
L 889.689771 148.48762 
L 896.372887 140.735586 
L 902.793851 133.796617 
L 908.972456 127.587964 
L 914.926333 122.035617 
L 920.671259 117.073209 
L 926.221404 112.641103 
L 931.589544 108.685624 
L 936.787238 105.158396 
L 941.824977 102.01578 
L 946.712313 99.218388 
L 951.457966 96.730654 
L 956.069922 94.520462 
L 960.555507 92.558814 
L 964.921461 90.819536 
L 969.174001 89.279014 
L 973.318871 87.915959 
L 977.361387 86.711194 
L 981.306484 85.647455 
L 985.158746 84.709222 
L 988.922443 83.882553 
L 992.601555 83.15494 
L 996.199801 82.515175 
L 999.720659 81.953225 
L 1003.167388 81.460125 
L 1006.543046 81.02787 
L 1009.850504 80.649323 
L 1013.092463 80.318131 
L 1016.271468 80.028644 
L 1019.389916 79.775846 
L 1022.450073 79.555288 
L 1025.454076 79.363031 
L 1028.403951 79.195589 
L 1031.301612 79.049885 
L 1034.148877 78.923201 
L 1036.947468 78.813145 
L 1039.699022 78.717611 
L 1042.405093 78.634747 
L 1045.067161 78.562927 
L 1047.686635 78.500726 
L 1050.264855 78.446893 
L 1052.803101 78.400336 
L 1055.302594 78.3601 
L 1057.764499 78.325349 
L 1060.18993 78.295355 
L 1062.579952 78.269483 
L 1064.935584 78.247182 
L 1067.257801 78.227969 
L 1069.547539 78.211426 
L 1071.805694 78.197191 
L 1074.033124 78.184949 
L 1076.230655 78.174426 
L 1078.399078 78.165386 
L 1080.539156 78.157624 
L 1082.651619 78.150963 
L 1084.73717 78.145248 
L 1086.796488 78.140349 
L 1088.830224 78.136151 
L 1090.839004 78.132554 
L 1092.823436 78.129475 
L 1094.784101 78.12684 
L 1096.721563 78.124586 
L 1098.636364 78.122658 
" clip-path="url(#p0a3076883c)" style="fill: none; stroke: #6495ed; stroke-width: 4; stroke-linecap: square"/>
   </g>
   <g id="patch_9">
    <path d="M 728.75 448.56 
L 728.75 60.48 
" style="fill: none; stroke: #000000; stroke-width: 0.8; stroke-linejoin: miter; stroke-linecap: square"/>
   </g>
   <g id="patch_10">
    <path d="M 1116.25 448.56 
L 1116.25 60.48 
" style="fill: none; stroke: #000000; stroke-width: 0.8; stroke-linejoin: miter; stroke-linecap: square"/>
   </g>
   <g id="patch_11">
    <path d="M 728.75 448.56 
L 1116.25 448.56 
" style="fill: none; stroke: #000000; stroke-width: 0.8; stroke-linejoin: miter; stroke-linecap: square"/>
   </g>
   <g id="patch_12">
    <path d="M 728.75 60.48 
L 1116.25 60.48 
" style="fill: none; stroke: #000000; stroke-width: 0.8; stroke-linejoin: miter; stroke-linecap: square"/>
   </g>
   <g id="legend_2">
    <g id="patch_13">
     <path d="M 847.16 440.56 
L 1105.05 440.56 
Q 1108.25 440.56 1108.25 437.36 
L 1108.25 368.505 
Q 1108.25 365.305 1105.05 365.305 
L 847.16 365.305 
Q 843.96 365.305 843.96 368.505 
L 843.96 437.36 
Q 843.96 440.56 847.16 440.56 
z
" style="fill: #ffffff; opacity: 0.8; stroke: #ffffff; stroke-linejoin: miter"/>
    </g>
    <g id="line2d_97">
     <path d="M 850.36 378.2625 
L 866.36 378.2625 
L 882.36 378.2625 
" style="fill: none; stroke-dasharray: 14.8,6.4; stroke-dashoffset: 0; stroke: #808080; stroke-opacity: 0.3; stroke-width: 4"/>
    </g>
    <g id="text_21">
     <!-- Average Converged Value -->
     <g transform="translate(895.16 383.8625)scale(0.16 -0.16)">
      <use xlink:href="#DejaVuSans-41"/>
      <use xlink:href="#DejaVuSans-76" x="62.533203"/>
      <use xlink:href="#DejaVuSans-65" x="121.712891"/>
      <use xlink:href="#DejaVuSans-72" x="183.236328"/>
      <use xlink:href="#DejaVuSans-61" x="224.349609"/>
      <use xlink:href="#DejaVuSans-67" x="285.628906"/>
      <use xlink:href="#DejaVuSans-65" x="349.105469"/>
      <use xlink:href="#DejaVuSans-20" x="410.628906"/>
      <use xlink:href="#DejaVuSans-43" x="442.416016"/>
      <use xlink:href="#DejaVuSans-6f" x="512.240234"/>
      <use xlink:href="#DejaVuSans-6e" x="573.421875"/>
      <use xlink:href="#DejaVuSans-76" x="636.800781"/>
      <use xlink:href="#DejaVuSans-65" x="695.980469"/>
      <use xlink:href="#DejaVuSans-72" x="757.503906"/>
      <use xlink:href="#DejaVuSans-67" x="796.867188"/>
      <use xlink:href="#DejaVuSans-65" x="860.34375"/>
      <use xlink:href="#DejaVuSans-64" x="921.867188"/>
      <use xlink:href="#DejaVuSans-20" x="985.34375"/>
      <use xlink:href="#DejaVuSans-56" x="1017.130859"/>
      <use xlink:href="#DejaVuSans-61" x="1077.789062"/>
      <use xlink:href="#DejaVuSans-6c" x="1139.068359"/>
      <use xlink:href="#DejaVuSans-75" x="1166.851562"/>
      <use xlink:href="#DejaVuSans-65" x="1230.230469"/>
     </g>
    </g>
    <g id="PathCollection_4">
     <g>
      <use xlink:href="#m73b3208d07" x="866.36" y="403.1475" style="fill: #6495ed; stroke: #6495ed"/>
     </g>
    </g>
    <g id="text_22">
     <!-- Final Variable Value -->
     <g transform="translate(895.16 407.3475)scale(0.16 -0.16)">
      <use xlink:href="#DejaVuSans-46"/>
      <use xlink:href="#DejaVuSans-69" x="50.269531"/>
      <use xlink:href="#DejaVuSans-6e" x="78.052734"/>
      <use xlink:href="#DejaVuSans-61" x="141.431641"/>
      <use xlink:href="#DejaVuSans-6c" x="202.710938"/>
      <use xlink:href="#DejaVuSans-20" x="230.494141"/>
      <use xlink:href="#DejaVuSans-56" x="262.28125"/>
      <use xlink:href="#DejaVuSans-61" x="322.939453"/>
      <use xlink:href="#DejaVuSans-72" x="384.21875"/>
      <use xlink:href="#DejaVuSans-69" x="425.332031"/>
      <use xlink:href="#DejaVuSans-61" x="453.115234"/>
      <use xlink:href="#DejaVuSans-62" x="514.394531"/>
      <use xlink:href="#DejaVuSans-6c" x="577.871094"/>
      <use xlink:href="#DejaVuSans-65" x="605.654297"/>
      <use xlink:href="#DejaVuSans-20" x="667.177734"/>
      <use xlink:href="#DejaVuSans-56" x="698.964844"/>
      <use xlink:href="#DejaVuSans-61" x="759.623047"/>
      <use xlink:href="#DejaVuSans-6c" x="820.902344"/>
      <use xlink:href="#DejaVuSans-75" x="848.685547"/>
      <use xlink:href="#DejaVuSans-65" x="912.064453"/>
     </g>
    </g>
    <g id="line2d_98">
     <path d="M 850.36 425.2325 
L 866.36 425.2325 
L 882.36 425.2325 
" style="fill: none; stroke: #6495ed; stroke-width: 4; stroke-linecap: square"/>
    </g>
    <g id="text_23">
     <!-- Path of Convergence -->
     <g transform="translate(895.16 430.8325)scale(0.16 -0.16)">
      <use xlink:href="#DejaVuSans-50"/>
      <use xlink:href="#DejaVuSans-61" x="55.802734"/>
      <use xlink:href="#DejaVuSans-74" x="117.082031"/>
      <use xlink:href="#DejaVuSans-68" x="156.291016"/>
      <use xlink:href="#DejaVuSans-20" x="219.669922"/>
      <use xlink:href="#DejaVuSans-6f" x="251.457031"/>
      <use xlink:href="#DejaVuSans-66" x="312.638672"/>
      <use xlink:href="#DejaVuSans-20" x="347.84375"/>
      <use xlink:href="#DejaVuSans-43" x="379.630859"/>
      <use xlink:href="#DejaVuSans-6f" x="449.455078"/>
      <use xlink:href="#DejaVuSans-6e" x="510.636719"/>
      <use xlink:href="#DejaVuSans-76" x="574.015625"/>
      <use xlink:href="#DejaVuSans-65" x="633.195312"/>
      <use xlink:href="#DejaVuSans-72" x="694.71875"/>
      <use xlink:href="#DejaVuSans-67" x="734.082031"/>
      <use xlink:href="#DejaVuSans-65" x="797.558594"/>
      <use xlink:href="#DejaVuSans-6e" x="859.082031"/>
      <use xlink:href="#DejaVuSans-63" x="922.460938"/>
      <use xlink:href="#DejaVuSans-65" x="977.441406"/>
     </g>
    </g>
   </g>
  </g>
  <g id="axes_3">
   <g id="patch_14">
    <path d="M 1232.5 448.56 
L 1620 448.56 
L 1620 60.48 
L 1232.5 60.48 
z
" style="fill: #ffffff"/>
   </g>
   <g id="PathCollection_5">
    <defs>
     <path id="me9fa6f9321" d="M 0 6.123724 
C 1.624031 6.123724 3.181764 5.47849 4.330127 4.330127 
C 5.47849 3.181764 6.123724 1.624031 6.123724 0 
C 6.123724 -1.624031 5.47849 -3.181764 4.330127 -4.330127 
C 3.181764 -5.47849 1.624031 -6.123724 0 -6.123724 
C -1.624031 -6.123724 -3.181764 -5.47849 -4.330127 -4.330127 
C -5.47849 -3.181764 -6.123724 -1.624031 -6.123724 0 
C -6.123724 1.624031 -5.47849 3.181764 -4.330127 4.330127 
C -3.181764 5.47849 -1.624031 6.123724 0 6.123724 
z
" style="stroke: #4b0082"/>
    </defs>
    <g clip-path="url(#pf0f7146947)">
     <use xlink:href="#me9fa6f9321" x="1250.113636" y="79.214521" style="fill: #4b0082; stroke: #4b0082"/>
    </g>
   </g>
   <g id="matplotlib.axis_5">
    <g id="xtick_29">
     <g id="line2d_99">
      <path d="M 1602.386364 448.56 
L 1602.386364 60.48 
" clip-path="url(#pf0f7146947)" style="fill: none; stroke: #b0b0b0; stroke-opacity: 0.2; stroke-linecap: square"/>
     </g>
     <g id="line2d_100">
      <g>
       <use xlink:href="#m95ce30ea05" x="1602.386364" y="448.56" style="stroke: #000000; stroke-width: 1.5"/>
      </g>
     </g>
     <g id="line2d_101">
      <g>
       <use xlink:href="#m470762e2e3" x="1602.386364" y="60.48" style="stroke: #000000; stroke-width: 1.5"/>
      </g>
     </g>
     <g id="text_24">
      <!-- $\mathdefault{10^{0}}$ -->
      <g transform="translate(1587.725564 468.218997)scale(0.1666 -0.1666)">
       <use xlink:href="#DejaVuSans-31" transform="translate(0 0.765625)"/>
       <use xlink:href="#DejaVuSans-30" transform="translate(63.623047 0.765625)"/>
       <use xlink:href="#DejaVuSans-30" transform="translate(128.203125 39.046875)scale(0.7)"/>
      </g>
     </g>
    </g>
    <g id="xtick_30">
     <g id="line2d_102">
      <g>
       <use xlink:href="#m73aa0819f6" x="1250.113636" y="448.56" style="stroke: #000000"/>
      </g>
     </g>
     <g id="line2d_103">
      <g>
       <use xlink:href="#m48c4147199" x="1250.113636" y="60.48" style="stroke: #000000"/>
      </g>
     </g>
     <g id="text_25">
      <!-- $\mathdefault{3\times10^{-1}}$ -->
      <g transform="translate(1215.044336 468.218997)scale(0.1666 -0.1666)">
       <use xlink:href="#DejaVuSans-33" transform="translate(0 0.684375)"/>
       <use xlink:href="#DejaVuSans-d7" transform="translate(83.105469 0.684375)"/>
       <use xlink:href="#DejaVuSans-31" transform="translate(186.376953 0.684375)"/>
       <use xlink:href="#DejaVuSans-30" transform="translate(250 0.684375)"/>
       <use xlink:href="#DejaVuSans-2212" transform="translate(314.580078 38.965625)scale(0.7)"/>
       <use xlink:href="#DejaVuSans-31" transform="translate(373.232422 38.965625)scale(0.7)"/>
      </g>
     </g>
    </g>
    <g id="xtick_31">
     <g id="line2d_104">
      <g>
       <use xlink:href="#m73aa0819f6" x="1334.287089" y="448.56" style="stroke: #000000"/>
      </g>
     </g>
     <g id="line2d_105">
      <g>
       <use xlink:href="#m48c4147199" x="1334.287089" y="60.48" style="stroke: #000000"/>
      </g>
     </g>
     <g id="text_26">
      <!-- $\mathdefault{4\times10^{-1}}$ -->
      <g transform="translate(1299.217789 468.218997)scale(0.1666 -0.1666)">
       <use xlink:href="#DejaVuSans-34" transform="translate(0 0.684375)"/>
       <use xlink:href="#DejaVuSans-d7" transform="translate(83.105469 0.684375)"/>
       <use xlink:href="#DejaVuSans-31" transform="translate(186.376953 0.684375)"/>
       <use xlink:href="#DejaVuSans-30" transform="translate(250 0.684375)"/>
       <use xlink:href="#DejaVuSans-2212" transform="translate(314.580078 38.965625)scale(0.7)"/>
       <use xlink:href="#DejaVuSans-31" transform="translate(373.232422 38.965625)scale(0.7)"/>
      </g>
     </g>
    </g>
    <g id="xtick_32">
     <g id="line2d_106">
      <g>
       <use xlink:href="#m73aa0819f6" x="1399.577092" y="448.56" style="stroke: #000000"/>
      </g>
     </g>
     <g id="line2d_107">
      <g>
       <use xlink:href="#m48c4147199" x="1399.577092" y="60.48" style="stroke: #000000"/>
      </g>
     </g>
    </g>
    <g id="xtick_33">
     <g id="line2d_108">
      <g>
       <use xlink:href="#m73aa0819f6" x="1452.922908" y="448.56" style="stroke: #000000"/>
      </g>
     </g>
     <g id="line2d_109">
      <g>
       <use xlink:href="#m48c4147199" x="1452.922908" y="60.48" style="stroke: #000000"/>
      </g>
     </g>
     <g id="text_27">
      <!-- $\mathdefault{6\times10^{-1}}$ -->
      <g transform="translate(1417.853608 468.218997)scale(0.1666 -0.1666)">
       <use xlink:href="#DejaVuSans-36" transform="translate(0 0.684375)"/>
       <use xlink:href="#DejaVuSans-d7" transform="translate(83.105469 0.684375)"/>
       <use xlink:href="#DejaVuSans-31" transform="translate(186.376953 0.684375)"/>
       <use xlink:href="#DejaVuSans-30" transform="translate(250 0.684375)"/>
       <use xlink:href="#DejaVuSans-2212" transform="translate(314.580078 38.965625)scale(0.7)"/>
       <use xlink:href="#DejaVuSans-31" transform="translate(373.232422 38.965625)scale(0.7)"/>
      </g>
     </g>
    </g>
    <g id="xtick_34">
     <g id="line2d_110">
      <g>
       <use xlink:href="#m73aa0819f6" x="1498.026153" y="448.56" style="stroke: #000000"/>
      </g>
     </g>
     <g id="line2d_111">
      <g>
       <use xlink:href="#m48c4147199" x="1498.026153" y="60.48" style="stroke: #000000"/>
      </g>
     </g>
    </g>
    <g id="xtick_35">
     <g id="line2d_112">
      <g>
       <use xlink:href="#m73aa0819f6" x="1537.096361" y="448.56" style="stroke: #000000"/>
      </g>
     </g>
     <g id="line2d_113">
      <g>
       <use xlink:href="#m48c4147199" x="1537.096361" y="60.48" style="stroke: #000000"/>
      </g>
     </g>
    </g>
    <g id="xtick_36">
     <g id="line2d_114">
      <g>
       <use xlink:href="#m73aa0819f6" x="1571.558727" y="448.56" style="stroke: #000000"/>
      </g>
     </g>
     <g id="line2d_115">
      <g>
       <use xlink:href="#m48c4147199" x="1571.558727" y="60.48" style="stroke: #000000"/>
      </g>
     </g>
    </g>
    <g id="text_28">
     <!-- Number of Bins -->
     <g transform="translate(1348.896875 490.880631)scale(0.2 -0.2)">
      <defs>
       <path id="DejaVuSans-4e" d="M 628 4666 
L 1478 4666 
L 3547 763 
L 3547 4666 
L 4159 4666 
L 4159 0 
L 3309 0 
L 1241 3903 
L 1241 0 
L 628 0 
L 628 4666 
z
" transform="scale(0.015625)"/>
       <path id="DejaVuSans-42" d="M 1259 2228 
L 1259 519 
L 2272 519 
Q 2781 519 3026 730 
Q 3272 941 3272 1375 
Q 3272 1813 3026 2020 
Q 2781 2228 2272 2228 
L 1259 2228 
z
M 1259 4147 
L 1259 2741 
L 2194 2741 
Q 2656 2741 2882 2914 
Q 3109 3088 3109 3444 
Q 3109 3797 2882 3972 
Q 2656 4147 2194 4147 
L 1259 4147 
z
M 628 4666 
L 2241 4666 
Q 2963 4666 3353 4366 
Q 3744 4066 3744 3513 
Q 3744 3084 3544 2831 
Q 3344 2578 2956 2516 
Q 3422 2416 3680 2098 
Q 3938 1781 3938 1306 
Q 3938 681 3513 340 
Q 3088 0 2303 0 
L 628 0 
L 628 4666 
z
" transform="scale(0.015625)"/>
      </defs>
      <use xlink:href="#DejaVuSans-4e"/>
      <use xlink:href="#DejaVuSans-75" x="74.804688"/>
      <use xlink:href="#DejaVuSans-6d" x="138.183594"/>
      <use xlink:href="#DejaVuSans-62" x="235.595703"/>
      <use xlink:href="#DejaVuSans-65" x="299.072266"/>
      <use xlink:href="#DejaVuSans-72" x="360.595703"/>
      <use xlink:href="#DejaVuSans-20" x="401.708984"/>
      <use xlink:href="#DejaVuSans-6f" x="433.496094"/>
      <use xlink:href="#DejaVuSans-66" x="494.677734"/>
      <use xlink:href="#DejaVuSans-20" x="529.882812"/>
      <use xlink:href="#DejaVuSans-42" x="561.669922"/>
      <use xlink:href="#DejaVuSans-69" x="630.273438"/>
      <use xlink:href="#DejaVuSans-6e" x="658.056641"/>
      <use xlink:href="#DejaVuSans-73" x="721.435547"/>
     </g>
    </g>
   </g>
   <g id="matplotlib.axis_6">
    <g id="ytick_16">
     <g id="line2d_116">
      <g>
       <use xlink:href="#m02f29cbcfe" x="1232.5" y="395.407981" style="stroke: #000000"/>
      </g>
     </g>
     <g id="line2d_117">
      <g>
       <use xlink:href="#mcf27a09fba" x="1620" y="395.407981" style="stroke: #000000"/>
      </g>
     </g>
     <g id="text_29">
      <!-- $\mathdefault{1.89\times10^{0}}$ -->
      <g transform="translate(1139.0346 401.737479)scale(0.1666 -0.1666)">
       <use xlink:href="#DejaVuSans-31" transform="translate(0 0.765625)"/>
       <use xlink:href="#DejaVuSans-2e" transform="translate(63.623047 0.765625)"/>
       <use xlink:href="#DejaVuSans-38" transform="translate(92.785156 0.765625)"/>
       <use xlink:href="#DejaVuSans-39" transform="translate(156.408203 0.765625)"/>
       <use xlink:href="#DejaVuSans-d7" transform="translate(239.513672 0.765625)"/>
       <use xlink:href="#DejaVuSans-31" transform="translate(342.785156 0.765625)"/>
       <use xlink:href="#DejaVuSans-30" transform="translate(406.408203 0.765625)"/>
       <use xlink:href="#DejaVuSans-30" transform="translate(470.988281 39.046875)scale(0.7)"/>
      </g>
     </g>
    </g>
    <g id="ytick_17">
     <g id="line2d_118">
      <g>
       <use xlink:href="#m02f29cbcfe" x="1232.5" y="341.921595" style="stroke: #000000"/>
      </g>
     </g>
     <g id="line2d_119">
      <g>
       <use xlink:href="#mcf27a09fba" x="1620" y="341.921595" style="stroke: #000000"/>
      </g>
     </g>
     <g id="text_30">
      <!-- $\mathdefault{1.8925\times10^{0}}$ -->
      <g transform="translate(1118.2096 348.251094)scale(0.1666 -0.1666)">
       <use xlink:href="#DejaVuSans-31" transform="translate(0 0.765625)"/>
       <use xlink:href="#DejaVuSans-2e" transform="translate(63.623047 0.765625)"/>
       <use xlink:href="#DejaVuSans-38" transform="translate(92.785156 0.765625)"/>
       <use xlink:href="#DejaVuSans-39" transform="translate(156.408203 0.765625)"/>
       <use xlink:href="#DejaVuSans-32" transform="translate(218.28125 0.765625)"/>
       <use xlink:href="#DejaVuSans-35" transform="translate(281.904297 0.765625)"/>
       <use xlink:href="#DejaVuSans-d7" transform="translate(365.009766 0.765625)"/>
       <use xlink:href="#DejaVuSans-31" transform="translate(468.28125 0.765625)"/>
       <use xlink:href="#DejaVuSans-30" transform="translate(531.904297 0.765625)"/>
       <use xlink:href="#DejaVuSans-30" transform="translate(596.484375 39.046875)scale(0.7)"/>
      </g>
     </g>
    </g>
    <g id="ytick_18">
     <g id="line2d_120">
      <g>
       <use xlink:href="#m02f29cbcfe" x="1232.5" y="288.505819" style="stroke: #000000"/>
      </g>
     </g>
     <g id="line2d_121">
      <g>
       <use xlink:href="#mcf27a09fba" x="1620" y="288.505819" style="stroke: #000000"/>
      </g>
     </g>
     <g id="text_31">
      <!-- $\mathdefault{1.895\times10^{0}}$ -->
      <g transform="translate(1128.5388 294.835317)scale(0.1666 -0.1666)">
       <use xlink:href="#DejaVuSans-31" transform="translate(0 0.765625)"/>
       <use xlink:href="#DejaVuSans-2e" transform="translate(63.623047 0.765625)"/>
       <use xlink:href="#DejaVuSans-38" transform="translate(92.785156 0.765625)"/>
       <use xlink:href="#DejaVuSans-39" transform="translate(156.408203 0.765625)"/>
       <use xlink:href="#DejaVuSans-35" transform="translate(220.03125 0.765625)"/>
       <use xlink:href="#DejaVuSans-d7" transform="translate(303.136719 0.765625)"/>
       <use xlink:href="#DejaVuSans-31" transform="translate(406.408203 0.765625)"/>
       <use xlink:href="#DejaVuSans-30" transform="translate(470.03125 0.765625)"/>
       <use xlink:href="#DejaVuSans-30" transform="translate(534.611328 39.046875)scale(0.7)"/>
      </g>
     </g>
    </g>
    <g id="ytick_19">
     <g id="line2d_122">
      <g>
       <use xlink:href="#m02f29cbcfe" x="1232.5" y="235.160465" style="stroke: #000000"/>
      </g>
     </g>
     <g id="line2d_123">
      <g>
       <use xlink:href="#mcf27a09fba" x="1620" y="235.160465" style="stroke: #000000"/>
      </g>
     </g>
     <g id="text_32">
      <!-- $\mathdefault{1.8975\times10^{0}}$ -->
      <g transform="translate(1117.8764 241.489964)scale(0.1666 -0.1666)">
       <use xlink:href="#DejaVuSans-31" transform="translate(0 0.765625)"/>
       <use xlink:href="#DejaVuSans-2e" transform="translate(63.623047 0.765625)"/>
       <use xlink:href="#DejaVuSans-38" transform="translate(92.785156 0.765625)"/>
       <use xlink:href="#DejaVuSans-39" transform="translate(156.408203 0.765625)"/>
       <use xlink:href="#DejaVuSans-37" transform="translate(220.03125 0.765625)"/>
       <use xlink:href="#DejaVuSans-35" transform="translate(283.654297 0.765625)"/>
       <use xlink:href="#DejaVuSans-d7" transform="translate(366.759766 0.765625)"/>
       <use xlink:href="#DejaVuSans-31" transform="translate(470.03125 0.765625)"/>
       <use xlink:href="#DejaVuSans-30" transform="translate(533.654297 0.765625)"/>
       <use xlink:href="#DejaVuSans-30" transform="translate(598.234375 39.046875)scale(0.7)"/>
      </g>
     </g>
    </g>
    <g id="ytick_20">
     <g id="line2d_124">
      <g>
       <use xlink:href="#m02f29cbcfe" x="1232.5" y="181.885349" style="stroke: #000000"/>
      </g>
     </g>
     <g id="line2d_125">
      <g>
       <use xlink:href="#mcf27a09fba" x="1620" y="181.885349" style="stroke: #000000"/>
      </g>
     </g>
     <g id="text_33">
      <!-- $\mathdefault{1.9\times10^{0}}$ -->
      <g transform="translate(1149.1972 188.214848)scale(0.1666 -0.1666)">
       <use xlink:href="#DejaVuSans-31" transform="translate(0 0.765625)"/>
       <use xlink:href="#DejaVuSans-2e" transform="translate(63.623047 0.765625)"/>
       <use xlink:href="#DejaVuSans-39" transform="translate(95.410156 0.765625)"/>
       <use xlink:href="#DejaVuSans-d7" transform="translate(178.515625 0.765625)"/>
       <use xlink:href="#DejaVuSans-31" transform="translate(281.787109 0.765625)"/>
       <use xlink:href="#DejaVuSans-30" transform="translate(345.410156 0.765625)"/>
       <use xlink:href="#DejaVuSans-30" transform="translate(409.990234 39.046875)scale(0.7)"/>
      </g>
     </g>
    </g>
    <g id="ytick_21">
     <g id="line2d_126">
      <g>
       <use xlink:href="#m02f29cbcfe" x="1232.5" y="128.680286" style="stroke: #000000"/>
      </g>
     </g>
     <g id="line2d_127">
      <g>
       <use xlink:href="#mcf27a09fba" x="1620" y="128.680286" style="stroke: #000000"/>
      </g>
     </g>
     <g id="text_34">
      <!-- $\mathdefault{1.9025\times10^{0}}$ -->
      <g transform="translate(1117.3766 135.009785)scale(0.1666 -0.1666)">
       <use xlink:href="#DejaVuSans-31" transform="translate(0 0.765625)"/>
       <use xlink:href="#DejaVuSans-2e" transform="translate(63.623047 0.765625)"/>
       <use xlink:href="#DejaVuSans-39" transform="translate(95.410156 0.765625)"/>
       <use xlink:href="#DejaVuSans-30" transform="translate(159.033203 0.765625)"/>
       <use xlink:href="#DejaVuSans-32" transform="translate(222.65625 0.765625)"/>
       <use xlink:href="#DejaVuSans-35" transform="translate(286.279297 0.765625)"/>
       <use xlink:href="#DejaVuSans-d7" transform="translate(369.384766 0.765625)"/>
       <use xlink:href="#DejaVuSans-31" transform="translate(472.65625 0.765625)"/>
       <use xlink:href="#DejaVuSans-30" transform="translate(536.279297 0.765625)"/>
       <use xlink:href="#DejaVuSans-30" transform="translate(600.859375 39.046875)scale(0.7)"/>
      </g>
     </g>
    </g>
    <g id="ytick_22">
     <g id="line2d_128">
      <g>
       <use xlink:href="#m02f29cbcfe" x="1232.5" y="75.545092" style="stroke: #000000"/>
      </g>
     </g>
     <g id="line2d_129">
      <g>
       <use xlink:href="#mcf27a09fba" x="1620" y="75.545092" style="stroke: #000000"/>
      </g>
     </g>
     <g id="text_35">
      <!-- $\mathdefault{1.905\times10^{0}}$ -->
      <g transform="translate(1128.039 81.87459)scale(0.1666 -0.1666)">
       <use xlink:href="#DejaVuSans-31" transform="translate(0 0.765625)"/>
       <use xlink:href="#DejaVuSans-2e" transform="translate(63.623047 0.765625)"/>
       <use xlink:href="#DejaVuSans-39" transform="translate(95.410156 0.765625)"/>
       <use xlink:href="#DejaVuSans-30" transform="translate(159.033203 0.765625)"/>
       <use xlink:href="#DejaVuSans-35" transform="translate(222.65625 0.765625)"/>
       <use xlink:href="#DejaVuSans-d7" transform="translate(305.761719 0.765625)"/>
       <use xlink:href="#DejaVuSans-31" transform="translate(409.033203 0.765625)"/>
       <use xlink:href="#DejaVuSans-30" transform="translate(472.65625 0.765625)"/>
       <use xlink:href="#DejaVuSans-30" transform="translate(537.236328 39.046875)scale(0.7)"/>
      </g>
     </g>
    </g>
   </g>
   <g id="line2d_130">
    <path d="M 1232.5 78.12 
L 1620 78.12 
" clip-path="url(#pf0f7146947)" style="fill: none; stroke-dasharray: 14.8,6.4; stroke-dashoffset: 0; stroke: #808080; stroke-opacity: 0.3; stroke-width: 4"/>
   </g>
   <g id="line2d_131">
    <path d="M 1602.386364 430.92 
L 1599.445716 417.015002 
L 1596.475214 403.786436 
L 1593.474245 389.969595 
L 1590.442177 376.875363 
L 1587.37836 364.458761 
L 1584.28212 352.678052 
L 1581.152765 341.494471 
L 1577.989578 329.932954 
L 1574.79182 318.995866 
L 1571.558727 308.64309 
L 1568.289509 298.043961 
L 1564.983351 288.792394 
L 1561.639406 279.308696 
L 1558.256803 269.680601 
L 1554.834636 261.246987 
L 1551.371969 252.673188 
L 1547.867833 244.03191 
L 1544.32122 235.914209 
L 1540.73109 228.282419 
L 1537.096361 221.102005 
L 1533.415911 213.904742 
L 1529.688575 207.149748 
L 1525.913143 200.421134 
L 1522.088357 194.120081 
L 1518.212911 188.214363 
L 1514.285443 182.35949 
L 1510.304539 176.589272 
L 1506.268724 171.206676 
L 1502.176463 166.180843 
L 1498.026153 161.007378 
L 1493.816125 156.4223 
L 1489.544634 151.731726 
L 1485.209859 147.379864 
L 1480.809898 143.337764 
L 1476.342759 139.414836 
L 1471.806359 135.62288 
L 1467.198516 131.971288 
L 1462.516946 128.4672 
L 1457.759249 125.234912 
L 1452.922908 122.029428 
L 1448.005281 119.082569 
L 1443.003588 116.27684 
L 1437.914904 113.612615 
L 1432.736151 111.011275 
L 1427.464081 108.63315 
L 1422.095271 106.325735 
L 1416.626104 104.161891 
L 1411.052756 102.136204 
L 1405.371181 100.194186 
L 1399.577092 98.387565 
L 1393.665943 96.669108 
L 1387.632906 95.079034 
L 1381.472848 93.544304 
L 1375.180306 92.134644 
L 1368.749455 90.814456 
L 1362.174079 89.559611 
L 1355.447531 88.396554 
L 1348.562698 87.321925 
L 1341.511949 86.315469 
L 1334.287089 85.378508 
L 1326.879303 84.510981 
L 1319.279085 83.700526 
L 1311.476171 82.958986 
L 1303.459453 82.274596 
L 1295.216881 81.646986 
L 1286.735362 81.068327 
L 1278.000626 80.539044 
L 1268.997087 80.053617 
L 1259.707674 79.612394 
L 1250.113636 79.214521 
" clip-path="url(#pf0f7146947)" style="fill: none; stroke: #4b0082; stroke-width: 4; stroke-linecap: square"/>
   </g>
   <g id="patch_15">
    <path d="M 1232.5 448.56 
L 1232.5 60.48 
" style="fill: none; stroke: #000000; stroke-width: 0.8; stroke-linejoin: miter; stroke-linecap: square"/>
   </g>
   <g id="patch_16">
    <path d="M 1620 448.56 
L 1620 60.48 
" style="fill: none; stroke: #000000; stroke-width: 0.8; stroke-linejoin: miter; stroke-linecap: square"/>
   </g>
   <g id="patch_17">
    <path d="M 1232.5 448.56 
L 1620 448.56 
" style="fill: none; stroke: #000000; stroke-width: 0.8; stroke-linejoin: miter; stroke-linecap: square"/>
   </g>
   <g id="patch_18">
    <path d="M 1232.5 60.48 
L 1620 60.48 
" style="fill: none; stroke: #000000; stroke-width: 0.8; stroke-linejoin: miter; stroke-linecap: square"/>
   </g>
   <g id="legend_3">
    <g id="patch_19">
     <path d="M 1243.7 440.56 
L 1501.59 440.56 
Q 1504.79 440.56 1504.79 437.36 
L 1504.79 368.505 
Q 1504.79 365.305 1501.59 365.305 
L 1243.7 365.305 
Q 1240.5 365.305 1240.5 368.505 
L 1240.5 437.36 
Q 1240.5 440.56 1243.7 440.56 
z
" style="fill: #ffffff; opacity: 0.8; stroke: #ffffff; stroke-linejoin: miter"/>
    </g>
    <g id="line2d_132">
     <path d="M 1246.9 378.2625 
L 1262.9 378.2625 
L 1278.9 378.2625 
" style="fill: none; stroke-dasharray: 14.8,6.4; stroke-dashoffset: 0; stroke: #808080; stroke-opacity: 0.3; stroke-width: 4"/>
    </g>
    <g id="text_36">
     <!-- Average Converged Value -->
     <g transform="translate(1291.7 383.8625)scale(0.16 -0.16)">
      <use xlink:href="#DejaVuSans-41"/>
      <use xlink:href="#DejaVuSans-76" x="62.533203"/>
      <use xlink:href="#DejaVuSans-65" x="121.712891"/>
      <use xlink:href="#DejaVuSans-72" x="183.236328"/>
      <use xlink:href="#DejaVuSans-61" x="224.349609"/>
      <use xlink:href="#DejaVuSans-67" x="285.628906"/>
      <use xlink:href="#DejaVuSans-65" x="349.105469"/>
      <use xlink:href="#DejaVuSans-20" x="410.628906"/>
      <use xlink:href="#DejaVuSans-43" x="442.416016"/>
      <use xlink:href="#DejaVuSans-6f" x="512.240234"/>
      <use xlink:href="#DejaVuSans-6e" x="573.421875"/>
      <use xlink:href="#DejaVuSans-76" x="636.800781"/>
      <use xlink:href="#DejaVuSans-65" x="695.980469"/>
      <use xlink:href="#DejaVuSans-72" x="757.503906"/>
      <use xlink:href="#DejaVuSans-67" x="796.867188"/>
      <use xlink:href="#DejaVuSans-65" x="860.34375"/>
      <use xlink:href="#DejaVuSans-64" x="921.867188"/>
      <use xlink:href="#DejaVuSans-20" x="985.34375"/>
      <use xlink:href="#DejaVuSans-56" x="1017.130859"/>
      <use xlink:href="#DejaVuSans-61" x="1077.789062"/>
      <use xlink:href="#DejaVuSans-6c" x="1139.068359"/>
      <use xlink:href="#DejaVuSans-75" x="1166.851562"/>
      <use xlink:href="#DejaVuSans-65" x="1230.230469"/>
     </g>
    </g>
    <g id="PathCollection_6">
     <g>
      <use xlink:href="#me9fa6f9321" x="1262.9" y="403.1475" style="fill: #4b0082; stroke: #4b0082"/>
     </g>
    </g>
    <g id="text_37">
     <!-- Final Variable Value -->
     <g transform="translate(1291.7 407.3475)scale(0.16 -0.16)">
      <use xlink:href="#DejaVuSans-46"/>
      <use xlink:href="#DejaVuSans-69" x="50.269531"/>
      <use xlink:href="#DejaVuSans-6e" x="78.052734"/>
      <use xlink:href="#DejaVuSans-61" x="141.431641"/>
      <use xlink:href="#DejaVuSans-6c" x="202.710938"/>
      <use xlink:href="#DejaVuSans-20" x="230.494141"/>
      <use xlink:href="#DejaVuSans-56" x="262.28125"/>
      <use xlink:href="#DejaVuSans-61" x="322.939453"/>
      <use xlink:href="#DejaVuSans-72" x="384.21875"/>
      <use xlink:href="#DejaVuSans-69" x="425.332031"/>
      <use xlink:href="#DejaVuSans-61" x="453.115234"/>
      <use xlink:href="#DejaVuSans-62" x="514.394531"/>
      <use xlink:href="#DejaVuSans-6c" x="577.871094"/>
      <use xlink:href="#DejaVuSans-65" x="605.654297"/>
      <use xlink:href="#DejaVuSans-20" x="667.177734"/>
      <use xlink:href="#DejaVuSans-56" x="698.964844"/>
      <use xlink:href="#DejaVuSans-61" x="759.623047"/>
      <use xlink:href="#DejaVuSans-6c" x="820.902344"/>
      <use xlink:href="#DejaVuSans-75" x="848.685547"/>
      <use xlink:href="#DejaVuSans-65" x="912.064453"/>
     </g>
    </g>
    <g id="line2d_133">
     <path d="M 1246.9 425.2325 
L 1262.9 425.2325 
L 1278.9 425.2325 
" style="fill: none; stroke: #4b0082; stroke-width: 4; stroke-linecap: square"/>
    </g>
    <g id="text_38">
     <!-- Path of Convergence -->
     <g transform="translate(1291.7 430.8325)scale(0.16 -0.16)">
      <use xlink:href="#DejaVuSans-50"/>
      <use xlink:href="#DejaVuSans-61" x="55.802734"/>
      <use xlink:href="#DejaVuSans-74" x="117.082031"/>
      <use xlink:href="#DejaVuSans-68" x="156.291016"/>
      <use xlink:href="#DejaVuSans-20" x="219.669922"/>
      <use xlink:href="#DejaVuSans-6f" x="251.457031"/>
      <use xlink:href="#DejaVuSans-66" x="312.638672"/>
      <use xlink:href="#DejaVuSans-20" x="347.84375"/>
      <use xlink:href="#DejaVuSans-43" x="379.630859"/>
      <use xlink:href="#DejaVuSans-6f" x="449.455078"/>
      <use xlink:href="#DejaVuSans-6e" x="510.636719"/>
      <use xlink:href="#DejaVuSans-76" x="574.015625"/>
      <use xlink:href="#DejaVuSans-65" x="633.195312"/>
      <use xlink:href="#DejaVuSans-72" x="694.71875"/>
      <use xlink:href="#DejaVuSans-67" x="734.082031"/>
      <use xlink:href="#DejaVuSans-65" x="797.558594"/>
      <use xlink:href="#DejaVuSans-6e" x="859.082031"/>
      <use xlink:href="#DejaVuSans-63" x="922.460938"/>
      <use xlink:href="#DejaVuSans-65" x="977.441406"/>
     </g>
    </g>
   </g>
  </g>
 </g>
 <defs>
  <clipPath id="p0478cfb9b3">
   <rect x="225" y="60.48" width="387.5" height="388.08"/>
  </clipPath>
  <clipPath id="p0a3076883c">
   <rect x="728.75" y="60.48" width="387.5" height="388.08"/>
  </clipPath>
  <clipPath id="pf0f7146947">
   <rect x="1232.5" y="60.48" width="387.5" height="388.08"/>
  </clipPath>
 </defs>
</svg>
